G04*
G04 #@! TF.GenerationSoftware,Altium Limited,Altium Designer,21.9.2 (33)*
G04*
G04 Layer_Color=32768*
%FSLAX25Y25*%
%MOIN*%
G70*
G04*
G04 #@! TF.SameCoordinates,353233E6-1857-4CDD-983F-46C35F824410*
G04*
G04*
G04 #@! TF.FilePolarity,Positive*
G04*
G01*
G75*
%ADD64C,0.00197*%
%ADD65R,0.00591X0.01496*%
D64*
X44250Y148748D02*
X44131Y149782D01*
X43543Y150640D01*
X42623Y151126D01*
X41582Y151126D01*
X40662Y150640D01*
X40074Y149782D01*
X39955Y148748D01*
X33752Y148748D02*
X33633Y149782D01*
X33045Y150640D01*
X32125Y151126D01*
X31084Y151126D01*
X30164Y150640D01*
X29576Y149782D01*
X29457Y148748D01*
X23255Y148748D02*
X23135Y149782D01*
X22548Y150640D01*
X21627Y151126D01*
X20587Y151126D01*
X19666Y150640D01*
X19079Y149782D01*
X18959Y148748D01*
X12757Y148748D02*
X12638Y149782D01*
X12050Y150640D01*
X11130Y151126D01*
X10089Y151126D01*
X9169Y150640D01*
X8581Y149782D01*
X8462Y148748D01*
X2259Y148748D02*
X2140Y149782D01*
X1552Y150640D01*
X632Y151126D01*
X-409Y151126D01*
X-1329Y150640D01*
X-1917Y149782D01*
X-2036Y148748D01*
X-8238Y148748D02*
X-8358Y149782D01*
X-8945Y150640D01*
X-9866Y151126D01*
X-10906Y151126D01*
X-11826Y150640D01*
X-12414Y149782D01*
X-12534Y148748D01*
X-18736Y148748D02*
X-18855Y149782D01*
X-19443Y150640D01*
X-20363Y151126D01*
X-21404Y151126D01*
X-22324Y150640D01*
X-22912Y149782D01*
X-23031Y148748D01*
X-29233Y148748D02*
X-29353Y149782D01*
X-29941Y150640D01*
X-30861Y151126D01*
X-31901Y151126D01*
X-32822Y150640D01*
X-33409Y149782D01*
X-33529Y148748D01*
X54748Y148748D02*
X54628Y149782D01*
X54040Y150640D01*
X53120Y151126D01*
X52080Y151126D01*
X51159Y150640D01*
X50572Y149782D01*
X50452Y148748D01*
X44250Y148748D02*
X45252D01*
Y147252D02*
Y148748D01*
X38953Y147252D02*
X45252D01*
X38953D02*
Y148748D01*
X39955D01*
X33752D02*
X34754D01*
Y147252D02*
Y148748D01*
X28455Y147252D02*
X34754D01*
X28455D02*
Y148748D01*
X29457D01*
X23255D02*
X24257D01*
Y147252D02*
Y148748D01*
X17957Y147252D02*
X24257D01*
X17957D02*
Y148748D01*
X18959D01*
X12757D02*
X13759D01*
Y147252D02*
Y148748D01*
X7460Y147252D02*
X13759D01*
X7460D02*
Y148748D01*
X8462D01*
X2259D02*
X3261D01*
Y147252D02*
Y148748D01*
X-3038Y147252D02*
X3261D01*
X-3038D02*
Y148748D01*
X-2036D01*
X-8238D02*
X-7236D01*
Y147252D02*
Y148748D01*
X-13535Y147252D02*
X-7236D01*
X-13535D02*
Y148748D01*
X-12534D01*
X-18736D02*
X-17734D01*
Y147252D02*
Y148748D01*
X-24033Y147252D02*
X-17734D01*
X-24033D02*
Y148748D01*
X-23031D01*
X-29233D02*
X-28231D01*
Y147252D02*
Y148748D01*
X-34531Y147252D02*
X-28231D01*
X-34531D02*
Y148748D01*
X-33529D01*
X54748D02*
X55749D01*
Y147252D02*
Y148748D01*
X49450Y147252D02*
X55749D01*
X49450D02*
Y148748D01*
X50452D01*
D65*
X39248Y148000D02*
D03*
X28750D02*
D03*
X18253D02*
D03*
X7755D02*
D03*
X-2743D02*
D03*
X-13240D02*
D03*
X-23738D02*
D03*
X-34235D02*
D03*
X49746D02*
D03*
M02*
