M48
;Layer_Color=9474304
;FILE_FORMAT=2:4
INCH,TZ
;TYPE=PLATED
T1F00S00C0.0079
T2F00S00C0.0098
T3F00S00C0.0157
T4F00S00C0.0350
T5F00S00C0.1283
%
T01
X6120Y5000
X6100Y5520
X7450Y5490
X7420Y3980
X6080Y8960
X5340Y9360
X4010Y7580
X2700Y5740
X1820Y5480
X1030Y4020
X370Y3620
X0Y4940
X-1240Y5050
X-1340Y4470
X-1330Y3130
X-3080Y4290
X-3440Y5630
X-2310Y5410
X-360Y6020
X1070Y2550
X2070Y2590
X3200Y3590
X4040Y4170
X-2920Y10760
X-2870Y12700
X-3340Y13130
X-2870Y14520
X-1810Y14580
X-770
X290Y14590
X1340Y14580
X2410Y14590
X3220Y14410
X3370Y13100
X3350Y12600
X3120Y12180
X3230Y11510
X2290Y12450
X2660Y13220
X4490Y12960
X5000Y11750
X5340Y13900
X-1350Y12250
X5890Y13960
X6170Y14610
X7190Y12800
X7440Y11950
X7450Y11390
T02
X2280Y8250
X2870Y9390
T03
X150Y7680
X3260Y7710
T04
X8442Y6545
Y7635
Y8726
Y9816
Y10907
X9560Y10362
Y9271
Y8181
Y7090
T05
X9001Y3807
Y13645
M30
