G04*
G04 #@! TF.GenerationSoftware,Altium Limited,Altium Designer,21.9.2 (33)*
G04*
G04 Layer_Color=16711935*
%FSLAX25Y25*%
%MOIN*%
G70*
G04*
G04 #@! TF.SameCoordinates,353233E6-1857-4CDD-983F-46C35F824410*
G04*
G04*
G04 #@! TF.FilePolarity,Positive*
G04*
G01*
G75*
%ADD12C,0.00394*%
%ADD13C,0.00787*%
%ADD16C,0.00500*%
D12*
X25950Y27425D02*
Y30575D01*
X32250Y27425D02*
Y30575D01*
X25950D02*
X32250D01*
X25950Y27425D02*
X32250D01*
X53425Y49150D02*
X56575D01*
X53425Y55450D02*
X56575D01*
Y49150D02*
Y55450D01*
X53425Y49150D02*
Y55450D01*
X67025Y52750D02*
X70175D01*
X67025Y46450D02*
X70175D01*
X67025D02*
Y52750D01*
X70175Y46450D02*
Y52750D01*
X26850Y52575D02*
X33150D01*
X26850Y49425D02*
X33150D01*
X26850D02*
Y52575D01*
X33150Y49425D02*
Y52575D01*
X64150Y38725D02*
X70450D01*
X64150Y41875D02*
X70450D01*
X64150Y38725D02*
Y41875D01*
X70450Y38725D02*
Y41875D01*
X-24975Y135350D02*
X-21825D01*
X-24975Y129050D02*
X-21825D01*
X-24975D02*
Y135350D01*
X-21825Y129050D02*
Y135350D01*
X-18346D02*
X-15197D01*
X-18346Y129050D02*
X-15197D01*
X-18346D02*
Y135350D01*
X-15197Y129050D02*
Y135350D01*
X-11718D02*
X-8568D01*
X-11718Y129050D02*
X-8568D01*
X-11718D02*
Y135350D01*
X-8568Y129050D02*
Y135350D01*
X-5089D02*
X-1939D01*
X-5089Y129050D02*
X-1939D01*
X-5089D02*
Y135350D01*
X-1939Y129050D02*
Y135350D01*
X1539D02*
X4689D01*
X1539Y129050D02*
X4689D01*
X1539D02*
Y135350D01*
X4689Y129050D02*
Y135350D01*
X8168D02*
X11318D01*
X8168Y129050D02*
X11318D01*
X8168D02*
Y135350D01*
X11318Y129050D02*
Y135350D01*
X14797D02*
X17946D01*
X14797Y129050D02*
X17946D01*
X14797D02*
Y135350D01*
X17946Y129050D02*
Y135350D01*
X21425D02*
X24575D01*
X21425Y129050D02*
X24575D01*
X21425D02*
Y135350D01*
X24575Y129050D02*
Y135350D01*
X-25550Y52375D02*
X-19250D01*
X-25550Y49225D02*
X-19250D01*
Y52375D01*
X-25550Y49225D02*
Y52375D01*
X4650Y27225D02*
Y30375D01*
X10950Y27225D02*
Y30375D01*
X4650D02*
X10950D01*
X4650Y27225D02*
X10950D01*
X14084Y27211D02*
Y53589D01*
X-483Y27211D02*
Y53589D01*
X14084D01*
X-483Y27211D02*
X14084D01*
X28750Y32675D02*
X35050D01*
X28750Y29525D02*
X35050D01*
Y32675D01*
X28750Y29525D02*
Y32675D01*
X28650Y41625D02*
X34950D01*
X28650Y38475D02*
X34950D01*
Y41625D01*
X28650Y38475D02*
Y41625D01*
X35050Y47425D02*
Y50575D01*
X28750Y47425D02*
Y50575D01*
X35050D01*
X28750Y47425D02*
X35050D01*
X5350Y52675D02*
X11650D01*
X5350Y49525D02*
X11650D01*
X5350D02*
Y52675D01*
X11650Y49525D02*
Y52675D01*
X62850Y29775D02*
X69150D01*
X62850Y26625D02*
X69150D01*
X62850D02*
Y29775D01*
X69150Y26625D02*
Y29775D01*
X48550Y26425D02*
X54850D01*
X48550Y29575D02*
X54850D01*
Y26425D02*
Y29575D01*
X48550Y26425D02*
Y29575D01*
D13*
X74113Y33132D02*
X73325D01*
X74113D01*
D16*
X36238Y148185D02*
X76198D01*
X36238Y127713D02*
Y148185D01*
Y127713D02*
X76198D01*
Y148185D01*
X47439Y119740D02*
X49801D01*
X48620Y121709D02*
X49801Y119740D01*
X47439D02*
X48620Y121709D01*
X49723Y33112D02*
Y72088D01*
X65077Y33112D02*
Y72088D01*
X49723D02*
X65077D01*
X49723Y33112D02*
X65077D01*
M02*
