G04*
G04 #@! TF.GenerationSoftware,Altium Limited,Altium Designer,21.9.2 (33)*
G04*
G04 Layer_Physical_Order=1*
G04 Layer_Color=255*
%FSLAX25Y25*%
%MOIN*%
G70*
G04*
G04 #@! TF.SameCoordinates,353233E6-1857-4CDD-983F-46C35F824410*
G04*
G04*
G04 #@! TF.FilePolarity,Positive*
G04*
G01*
G75*
%ADD13C,0.00787*%
%ADD19R,0.03937X0.03740*%
%ADD20R,0.07874X0.03937*%
%ADD21R,0.19685X0.19685*%
%ADD22R,0.03937X0.07874*%
%ADD23R,0.02362X0.02362*%
%ADD24R,0.01575X0.01968*%
%ADD25R,0.04724X0.06693*%
G04:AMPARAMS|DCode=26|XSize=21.65mil|YSize=27.56mil|CornerRadius=5.41mil|HoleSize=0mil|Usage=FLASHONLY|Rotation=90.000|XOffset=0mil|YOffset=0mil|HoleType=Round|Shape=RoundedRectangle|*
%AMROUNDEDRECTD26*
21,1,0.02165,0.01673,0,0,90.0*
21,1,0.01083,0.02756,0,0,90.0*
1,1,0.01083,0.00837,0.00541*
1,1,0.01083,0.00837,-0.00541*
1,1,0.01083,-0.00837,-0.00541*
1,1,0.01083,-0.00837,0.00541*
%
%ADD26ROUNDEDRECTD26*%
G04:AMPARAMS|DCode=27|XSize=77.56mil|YSize=23.62mil|CornerRadius=2.95mil|HoleSize=0mil|Usage=FLASHONLY|Rotation=180.000|XOffset=0mil|YOffset=0mil|HoleType=Round|Shape=RoundedRectangle|*
%AMROUNDEDRECTD27*
21,1,0.07756,0.01772,0,0,180.0*
21,1,0.07165,0.02362,0,0,180.0*
1,1,0.00591,-0.03583,0.00886*
1,1,0.00591,0.03583,0.00886*
1,1,0.00591,0.03583,-0.00886*
1,1,0.00591,-0.03583,-0.00886*
%
%ADD27ROUNDEDRECTD27*%
%ADD42C,0.01968*%
%ADD43C,0.01378*%
%ADD44O,0.09000X0.06500*%
%ADD45C,0.18740*%
%ADD46R,0.09000X0.06500*%
%ADD47C,0.01575*%
%ADD48C,0.02756*%
G36*
X-25608Y146031D02*
X-25604D01*
Y142790D01*
X-26432D01*
Y143003D01*
X-28900D01*
Y138066D01*
Y133129D01*
X-26432D01*
Y133342D01*
X-15700D01*
X-15622Y132948D01*
X-15361Y132558D01*
X2949Y114249D01*
X2949Y114249D01*
X3339Y113987D01*
X3800Y113896D01*
X31277D01*
X31408Y113765D01*
X31987Y113525D01*
X32613D01*
X33192Y113765D01*
X33635Y114208D01*
X33875Y114787D01*
Y115413D01*
X33635Y115992D01*
X33192Y116435D01*
X32613Y116675D01*
X31987D01*
X31408Y116435D01*
X31277Y116304D01*
X4299D01*
X-12277Y132880D01*
X-12085Y133342D01*
X-11065D01*
X-10604Y133200D01*
X-10513Y132739D01*
X-10251Y132349D01*
X1149Y120949D01*
X1149Y120949D01*
X1539Y120687D01*
X2000Y120596D01*
X30177D01*
X30308Y120465D01*
X30887Y120225D01*
X31513D01*
X32092Y120465D01*
X32535Y120908D01*
X32775Y121487D01*
Y122113D01*
X32535Y122692D01*
X32092Y123135D01*
X31513Y123375D01*
X30887D01*
X30308Y123135D01*
X30177Y123004D01*
X24339D01*
X24131Y123504D01*
X24235Y123608D01*
X24475Y124187D01*
Y124287D01*
X24984Y124796D01*
X32477D01*
X32608Y124665D01*
X33187Y124425D01*
X33813D01*
X34196Y124584D01*
X34696Y124315D01*
Y78774D01*
X34196Y78566D01*
X33827Y78936D01*
X33031Y79265D01*
X32169D01*
X31373Y78936D01*
X31244Y78806D01*
X2314D01*
X1931Y78965D01*
X1069D01*
X273Y78636D01*
X-336Y78027D01*
X-665Y77231D01*
Y76369D01*
X-336Y75573D01*
X273Y74964D01*
X1069Y74635D01*
X1931D01*
X2727Y74964D01*
X2956Y75194D01*
X31544D01*
X32169Y74935D01*
X33031D01*
X33827Y75264D01*
X34196Y75634D01*
X34696Y75426D01*
Y74454D01*
X34696Y74454D01*
X34787Y73993D01*
X35048Y73603D01*
X36265Y72386D01*
X36074Y71924D01*
X-21894D01*
Y79995D01*
X11900D01*
X12476Y80109D01*
X12964Y80436D01*
X16314Y83786D01*
X16641Y84274D01*
X16755Y84850D01*
Y92395D01*
X28219D01*
X28387Y92325D01*
X29013D01*
X29592Y92565D01*
X30035Y93008D01*
X30275Y93587D01*
Y94213D01*
X30035Y94792D01*
X29592Y95235D01*
X29013Y95475D01*
X28387D01*
X28219Y95405D01*
X16057D01*
X15481Y95291D01*
X14993Y94964D01*
X14186Y94157D01*
X13859Y93669D01*
X13745Y93093D01*
Y85474D01*
X11276Y83005D01*
X-21994D01*
Y120599D01*
X-21899Y120694D01*
X-13500D01*
X-12809Y120831D01*
X-12223Y121223D01*
X-11831Y121809D01*
X-11694Y122500D01*
X-11831Y123191D01*
X-12223Y123777D01*
X-12809Y124169D01*
X-13500Y124306D01*
X-22647D01*
X-23338Y124169D01*
X-23924Y123777D01*
X-25077Y122624D01*
X-25469Y122038D01*
X-25606Y121347D01*
Y81500D01*
X-25506Y80997D01*
Y71924D01*
X-26432D01*
Y72137D01*
X-28900D01*
Y67200D01*
Y62263D01*
X-26432D01*
Y62476D01*
X-25905D01*
Y60300D01*
X-25791Y59724D01*
X-25464Y59236D01*
X-24643Y58414D01*
Y56386D01*
X-24793Y55948D01*
X-25143Y55948D01*
X-31092D01*
Y47680D01*
X-24793D01*
Y52865D01*
X-24293Y53066D01*
X-23992Y52765D01*
X-23413Y52525D01*
X-22787D01*
X-22208Y52765D01*
X-21765Y53208D01*
X-21750Y53245D01*
X-21250Y53146D01*
Y47680D01*
X-19005D01*
Y32720D01*
X-21250D01*
Y24706D01*
X-24793D01*
Y32720D01*
X-31092D01*
Y24706D01*
X-35494D01*
Y44758D01*
X-34994Y44965D01*
X-32205Y42176D01*
X-32135Y42008D01*
X-31692Y41565D01*
X-31113Y41325D01*
X-30487D01*
X-29908Y41565D01*
X-29465Y42008D01*
X-29225Y42587D01*
Y43213D01*
X-29465Y43792D01*
X-29908Y44235D01*
X-30076Y44305D01*
X-32895Y47124D01*
Y55819D01*
X-32825Y55987D01*
Y56613D01*
X-33065Y57192D01*
X-33508Y57635D01*
X-34087Y57875D01*
X-34713D01*
X-34994Y57759D01*
X-35494Y58087D01*
X-35494Y130377D01*
X-34994Y130477D01*
X-34915Y130288D01*
X-34413Y129785D01*
X-33900Y129572D01*
Y131300D01*
Y133028D01*
X-34413Y132815D01*
X-34915Y132313D01*
X-34994Y132123D01*
X-35494Y132223D01*
Y145819D01*
X-34637D01*
Y148000D01*
X-33637D01*
Y145819D01*
X-32956D01*
Y145047D01*
X-30275D01*
Y144887D01*
X-30035Y144308D01*
X-29592Y143865D01*
X-29013Y143625D01*
X-28387D01*
X-27808Y143865D01*
X-27365Y144308D01*
X-27125Y144887D01*
Y145301D01*
X-27120Y145328D01*
Y146031D01*
X-26657D01*
Y149494D01*
X-25608D01*
Y146031D01*
D02*
G37*
G36*
X125494Y24706D02*
X57806D01*
X57621Y25130D01*
X57621Y25206D01*
Y27500D01*
X54653D01*
Y28000D01*
X54153D01*
Y30870D01*
X51684Y30870D01*
X51272Y30658D01*
X50907Y30658D01*
X50554Y31011D01*
Y33110D01*
X51239D01*
X51661Y33194D01*
X52019Y33434D01*
X52258Y33792D01*
X52342Y34214D01*
Y35986D01*
X52258Y36408D01*
X52019Y36766D01*
X51661Y37006D01*
X51239Y37090D01*
X44073D01*
X43651Y37006D01*
X43293Y36766D01*
X43053Y36408D01*
X42969Y35986D01*
Y34214D01*
X43053Y33792D01*
X43293Y33434D01*
X43651Y33194D01*
X44073Y33110D01*
X46941D01*
Y30706D01*
X34809D01*
Y31657D01*
X33532D01*
Y35483D01*
X33575Y35587D01*
Y36213D01*
X33335Y36792D01*
X32892Y37235D01*
X32313Y37475D01*
X31687D01*
X31108Y37235D01*
X30665Y36792D01*
X30425Y36213D01*
Y35587D01*
X30521Y35355D01*
Y31657D01*
X29403D01*
X29297Y31657D01*
X28903D01*
X28797Y31657D01*
X28104D01*
Y43033D01*
X35000D01*
X35197Y42738D01*
X35637Y42444D01*
X36155Y42341D01*
X37829D01*
X38222Y42419D01*
X38471Y42200D01*
X39900D01*
Y43428D01*
X39617Y43310D01*
X39176Y43657D01*
X39183Y43696D01*
Y44778D01*
X39080Y45297D01*
X38787Y45736D01*
X38347Y46030D01*
X37829Y46133D01*
X36155D01*
X35637Y46030D01*
X35197Y45736D01*
X35000Y45441D01*
X28104D01*
Y48342D01*
X29572Y48342D01*
X29984Y48130D01*
X30215Y48130D01*
X32453D01*
Y51000D01*
Y53870D01*
X29984Y53870D01*
X29572Y53658D01*
X28204Y53658D01*
Y56377D01*
X28335Y56508D01*
X28575Y57087D01*
Y57713D01*
X28335Y58292D01*
X27892Y58735D01*
X27313Y58975D01*
X26687D01*
X26108Y58735D01*
X25665Y58292D01*
X25425Y57713D01*
Y57087D01*
X25665Y56508D01*
X25796Y56377D01*
Y53658D01*
X24291D01*
Y48342D01*
X25696D01*
Y45441D01*
X24417D01*
X24220Y45736D01*
X23780Y46030D01*
X23262Y46133D01*
X21588D01*
X21070Y46030D01*
X20630Y45736D01*
X20337Y45297D01*
X20234Y44778D01*
Y43696D01*
X20337Y43177D01*
X20630Y42738D01*
X21070Y42444D01*
X21588Y42341D01*
X23262D01*
X23780Y42444D01*
X24220Y42738D01*
X24417Y43033D01*
X25696D01*
Y31657D01*
X23391D01*
Y26342D01*
X28797D01*
X28903Y26342D01*
X29297D01*
X29403Y26342D01*
X34809D01*
Y27094D01*
X45991D01*
Y25343D01*
X51239D01*
X51386Y25206D01*
X51190Y24706D01*
X22682D01*
X22347Y25206D01*
X22428Y25400D01*
X18972D01*
X19053Y25206D01*
X18719Y24706D01*
X12856D01*
X12448Y25206D01*
X12506Y25500D01*
Y26142D01*
X13509D01*
Y31457D01*
X11605D01*
Y39278D01*
X11635Y39308D01*
X11875Y39887D01*
Y40513D01*
X11635Y41092D01*
X11192Y41535D01*
X10613Y41775D01*
X9987D01*
X9408Y41535D01*
X8965Y41092D01*
X8820Y40741D01*
X8709Y40576D01*
X8595Y40000D01*
Y31457D01*
X7997D01*
Y31457D01*
X7704D01*
X7204Y31702D01*
Y43196D01*
X13415D01*
X13587Y42938D01*
X14027Y42644D01*
X14545Y42541D01*
X16218D01*
X16737Y42644D01*
X17176Y42938D01*
X17470Y43377D01*
X17573Y43896D01*
Y44978D01*
X17470Y45497D01*
X17176Y45936D01*
X16737Y46230D01*
X16218Y46333D01*
X14545D01*
X14027Y46230D01*
X13587Y45936D01*
X13365Y45604D01*
X7204D01*
Y48089D01*
X7558Y48443D01*
X8072Y48443D01*
X8484Y48230D01*
X8715Y48230D01*
X10953D01*
Y51100D01*
Y53970D01*
X8484Y53970D01*
X8072Y53758D01*
X7406Y53758D01*
X7052Y54111D01*
Y54453D01*
X6938Y55029D01*
X6612Y55517D01*
X3664Y58464D01*
X3176Y58791D01*
X2600Y58905D01*
X-2014D01*
X-2225Y59405D01*
X-2025Y59887D01*
Y60513D01*
X-2132Y60772D01*
Y62476D01*
X38356D01*
Y69642D01*
X38818Y69833D01*
X42969Y65682D01*
Y64214D01*
X43053Y63792D01*
X43293Y63434D01*
X43651Y63194D01*
X44073Y63110D01*
X51239D01*
X51661Y63194D01*
X52019Y63434D01*
X52258Y63792D01*
X52342Y64214D01*
Y65986D01*
X52258Y66408D01*
X52019Y66766D01*
X51661Y67006D01*
X51239Y67090D01*
X44968D01*
X44447Y67610D01*
X44654Y68110D01*
X51239D01*
X51661Y68194D01*
X52019Y68434D01*
X52258Y68792D01*
X52342Y69214D01*
Y70986D01*
X52258Y71408D01*
X52019Y71766D01*
X51661Y72006D01*
X51239Y72090D01*
X51204D01*
Y116324D01*
X51395Y116506D01*
X51895Y116292D01*
Y94081D01*
X51825Y93913D01*
Y93287D01*
X52065Y92708D01*
X52508Y92265D01*
X53087Y92025D01*
X53713D01*
X54292Y92265D01*
X54735Y92708D01*
X54975Y93287D01*
Y93913D01*
X54905Y94081D01*
Y138519D01*
X54975Y138687D01*
Y139313D01*
X54735Y139892D01*
X54292Y140335D01*
X53713Y140575D01*
X53087D01*
X52508Y140335D01*
X52065Y139892D01*
X51825Y139313D01*
Y138687D01*
X51895Y138519D01*
Y118708D01*
X51395Y118494D01*
X51204Y118676D01*
Y145047D01*
X54175D01*
Y146031D01*
X55621D01*
X62596Y139057D01*
Y119978D01*
X62596Y119978D01*
X62687Y119518D01*
X62949Y119127D01*
X63427Y118649D01*
X63818Y118387D01*
X64278Y118296D01*
X73377D01*
X73508Y118165D01*
X74087Y117925D01*
X74713D01*
X75292Y118165D01*
X75735Y118608D01*
X75975Y119187D01*
Y119813D01*
X75735Y120392D01*
X75292Y120835D01*
X74713Y121075D01*
X74087D01*
X73508Y120835D01*
X73377Y120704D01*
X65004D01*
Y128949D01*
X65504Y129285D01*
X65569Y129272D01*
X69506D01*
X69813Y129333D01*
X70073Y129507D01*
X70247Y129768D01*
X70308Y130075D01*
Y137161D01*
X70247Y137469D01*
X70073Y137729D01*
X69813Y137903D01*
X69506Y137964D01*
X65569D01*
X65504Y137952D01*
X65004Y138287D01*
Y139556D01*
X64913Y140017D01*
X64652Y140407D01*
X61208Y143851D01*
X61252Y143999D01*
X61453Y144313D01*
X62055D01*
X62713Y144585D01*
X63215Y145088D01*
X63428Y145600D01*
X61700D01*
Y146100D01*
X61200D01*
Y147828D01*
X60688Y147615D01*
X60185Y147113D01*
X59913Y146456D01*
Y145853D01*
X59599Y145652D01*
X59451Y145608D01*
X57324Y147735D01*
Y149494D01*
X64766D01*
Y142673D01*
X64827Y142366D01*
X65001Y142105D01*
X65261Y141931D01*
X65569Y141870D01*
X69506D01*
X69813Y141931D01*
X70073Y142105D01*
X70247Y142366D01*
X70308Y142673D01*
Y149494D01*
X125494D01*
X125494Y24706D01*
D02*
G37*
G36*
X37477Y132880D02*
X36801Y132204D01*
X34723D01*
X34592Y132335D01*
X34013Y132575D01*
X33387D01*
X32808Y132335D01*
X32365Y131892D01*
X32125Y131313D01*
Y130687D01*
X32365Y130108D01*
X32369Y130104D01*
X32162Y129604D01*
X24099D01*
X21804Y131899D01*
Y133342D01*
X24861D01*
X25161Y132842D01*
X25025Y132513D01*
Y131887D01*
X25265Y131308D01*
X25708Y130865D01*
X26287Y130625D01*
X26913D01*
X27492Y130865D01*
X27935Y131308D01*
X28175Y131887D01*
Y132513D01*
X28039Y132842D01*
X28339Y133342D01*
X37285D01*
X37477Y132880D01*
D02*
G37*
G36*
X19396Y131400D02*
X19396Y131400D01*
X19487Y130939D01*
X19748Y130549D01*
X22749Y127549D01*
X23139Y127287D01*
X23342Y127247D01*
X23379Y127198D01*
X23490Y126708D01*
X22857Y126075D01*
X22587D01*
X22008Y125835D01*
X21565Y125392D01*
X21325Y124813D01*
Y124187D01*
X21565Y123608D01*
X21669Y123504D01*
X21462Y123004D01*
X2499D01*
X-7377Y132880D01*
X-7185Y133342D01*
X19396D01*
Y131400D01*
D02*
G37*
G36*
X48796Y118523D02*
X48665Y118392D01*
X48425Y117813D01*
Y117187D01*
X48665Y116608D01*
X48796Y116477D01*
Y72090D01*
X44073D01*
X43651Y72006D01*
X43293Y71766D01*
X43053Y71408D01*
X42969Y70986D01*
Y69795D01*
X42469Y69588D01*
X37104Y74953D01*
Y77165D01*
X38283D01*
X38523Y76665D01*
X38372Y76300D01*
X41828D01*
X41677Y76665D01*
X41917Y77165D01*
X46442D01*
Y79633D01*
X41505D01*
Y80633D01*
X46442D01*
Y83101D01*
X46230D01*
Y87377D01*
Y92377D01*
Y97377D01*
Y102377D01*
Y107377D01*
Y112377D01*
Y117377D01*
Y122377D01*
Y127889D01*
X46091D01*
X45916Y128389D01*
X46235Y128708D01*
X46469Y129272D01*
X46868D01*
X47175Y129333D01*
X47435Y129507D01*
X47609Y129768D01*
X47671Y130075D01*
Y137161D01*
X47609Y137469D01*
X47435Y137729D01*
X47175Y137903D01*
X46868Y137964D01*
X46104D01*
Y141870D01*
X46868D01*
X47175Y141931D01*
X47435Y142105D01*
X47609Y142366D01*
X47671Y142673D01*
Y145616D01*
X47875Y146031D01*
X48796D01*
Y118523D01*
D02*
G37*
G36*
X-5143Y60590D02*
X-5175Y60513D01*
Y59887D01*
X-4975Y59405D01*
X-5186Y58905D01*
X-15676D01*
X-17995Y61224D01*
Y62476D01*
X-5143D01*
Y60590D01*
D02*
G37*
G36*
X3614Y54258D02*
X3407Y53758D01*
X2791D01*
Y48443D01*
X4796D01*
Y45604D01*
X2831D01*
X2609Y45936D01*
X2170Y46230D01*
X1652Y46333D01*
X-22D01*
X-540Y46230D01*
X-980Y45936D01*
X-1273Y45497D01*
X-1376Y44978D01*
Y43896D01*
X-1273Y43377D01*
X-980Y42938D01*
X-540Y42644D01*
X-22Y42541D01*
X1652D01*
X2170Y42644D01*
X2609Y42938D01*
X2782Y43196D01*
X4796D01*
Y38222D01*
X4296Y37888D01*
X4200Y37928D01*
Y36200D01*
Y34472D01*
X4296Y34512D01*
X4796Y34178D01*
Y31457D01*
X2091D01*
Y26142D01*
X7603D01*
Y26142D01*
X7997D01*
Y26142D01*
X8894D01*
Y25500D01*
X8952Y25206D01*
X8544Y24706D01*
X-5108D01*
Y32720D01*
X-6895D01*
Y47680D01*
X-5108D01*
Y55895D01*
X1977D01*
X3614Y54258D01*
D02*
G37*
G36*
X-11407Y52306D02*
X-12400D01*
X-13091Y52169D01*
X-13677Y51777D01*
X-14069Y51191D01*
X-14206Y50500D01*
X-14069Y49809D01*
X-13677Y49223D01*
X-13091Y48831D01*
X-12400Y48694D01*
X-11407D01*
Y47680D01*
X-9905D01*
Y32720D01*
X-11407D01*
Y32152D01*
X-11907Y32052D01*
X-11965Y32192D01*
X-12408Y32635D01*
X-12987Y32875D01*
X-13613D01*
X-13872Y32768D01*
X-15620D01*
X-15995Y33117D01*
Y47680D01*
X-14950D01*
Y55895D01*
X-11407D01*
Y52306D01*
D02*
G37*
%LPC*%
G36*
X-29900Y143003D02*
X-32368D01*
Y138566D01*
X-29900D01*
Y143003D01*
D02*
G37*
G36*
Y137566D02*
X-32368D01*
Y133349D01*
X-32811Y132991D01*
X-32900Y133028D01*
Y131800D01*
X-31672D01*
X-31885Y132313D01*
X-32201Y132629D01*
X-31994Y133129D01*
X-29900D01*
Y137566D01*
D02*
G37*
G36*
X-31672Y130800D02*
X-32900D01*
Y129572D01*
X-32388Y129785D01*
X-31885Y130288D01*
X-31672Y130800D01*
D02*
G37*
G36*
X-28387Y128575D02*
X-29013D01*
X-29592Y128335D01*
X-30035Y127892D01*
X-30142Y127633D01*
X-30264Y127511D01*
X-30591Y127023D01*
X-30705Y126447D01*
Y108081D01*
X-30775Y107913D01*
Y107287D01*
X-30535Y106708D01*
X-30092Y106265D01*
X-29513Y106025D01*
X-28887D01*
X-28308Y106265D01*
X-27865Y106708D01*
X-27625Y107287D01*
Y107913D01*
X-27695Y108081D01*
Y125778D01*
X-27365Y126108D01*
X-27125Y126687D01*
Y127313D01*
X-27365Y127892D01*
X-27808Y128335D01*
X-28387Y128575D01*
D02*
G37*
G36*
X12242Y109442D02*
X1900D01*
Y99100D01*
X12242D01*
Y109442D01*
D02*
G37*
G36*
X900D02*
X-9443D01*
Y99100D01*
X900D01*
Y109442D01*
D02*
G37*
G36*
X12242Y98100D02*
X1900D01*
Y87757D01*
X12242D01*
Y98100D01*
D02*
G37*
G36*
X900D02*
X-9443D01*
Y87757D01*
X900D01*
Y98100D01*
D02*
G37*
G36*
X23300Y84228D02*
Y83000D01*
X24528D01*
X24315Y83513D01*
X23812Y84015D01*
X23300Y84228D01*
D02*
G37*
G36*
X22300D02*
X21788Y84015D01*
X21285Y83513D01*
X21072Y83000D01*
X22300D01*
Y84228D01*
D02*
G37*
G36*
X24528Y82000D02*
X23300D01*
Y80772D01*
X23812Y80985D01*
X24315Y81488D01*
X24528Y82000D01*
D02*
G37*
G36*
X22300D02*
X21072D01*
X21285Y81488D01*
X21788Y80985D01*
X22300Y80772D01*
Y82000D01*
D02*
G37*
G36*
X-29900Y72137D02*
X-32368D01*
Y67700D01*
X-29900D01*
Y72137D01*
D02*
G37*
G36*
Y66700D02*
X-32368D01*
Y62263D01*
X-29900D01*
Y66700D01*
D02*
G37*
G36*
X62200Y147828D02*
Y146600D01*
X63428D01*
X63215Y147113D01*
X62713Y147615D01*
X62200Y147828D01*
D02*
G37*
G36*
X72400Y129728D02*
Y128500D01*
X73628D01*
X73415Y129013D01*
X72913Y129515D01*
X72400Y129728D01*
D02*
G37*
G36*
X71400D02*
X70888Y129515D01*
X70385Y129013D01*
X70172Y128500D01*
X71400D01*
Y129728D01*
D02*
G37*
G36*
X91010Y146609D02*
X89009D01*
X87047Y146218D01*
X85198Y145453D01*
X83534Y144341D01*
X82120Y142926D01*
X81008Y141263D01*
X80242Y139414D01*
X79852Y137452D01*
Y135451D01*
X80242Y133488D01*
X81008Y131640D01*
X82120Y129976D01*
X83534Y128561D01*
X85198Y127450D01*
X87047Y126684D01*
X89009Y126294D01*
X91010D01*
X92972Y126684D01*
X94821Y127450D01*
X96484Y128561D01*
X97899Y129976D01*
X99011Y131640D01*
X99777Y133488D01*
X100167Y135451D01*
Y137452D01*
X99777Y139414D01*
X99011Y141263D01*
X97899Y142926D01*
X96484Y144341D01*
X94821Y145453D01*
X92972Y146218D01*
X91010Y146609D01*
D02*
G37*
G36*
X73628Y127500D02*
X72400D01*
Y126272D01*
X72913Y126485D01*
X73415Y126988D01*
X73628Y127500D01*
D02*
G37*
G36*
X71400D02*
X70172D01*
X70385Y126988D01*
X70888Y126485D01*
X71400Y126272D01*
Y127500D01*
D02*
G37*
G36*
X59213Y141175D02*
X58587D01*
X58008Y140935D01*
X57565Y140492D01*
X57325Y139913D01*
Y139287D01*
X57565Y138708D01*
X57696Y138577D01*
Y115161D01*
X57696Y115161D01*
X57787Y114700D01*
X58048Y114310D01*
X59310Y113049D01*
X59310Y113049D01*
X59700Y112787D01*
X60161Y112696D01*
X60161Y112696D01*
X73477D01*
X73608Y112565D01*
X74187Y112325D01*
X74813D01*
X75392Y112565D01*
X75835Y113008D01*
X76075Y113587D01*
Y114213D01*
X75835Y114792D01*
X75392Y115235D01*
X74813Y115475D01*
X74187D01*
X73608Y115235D01*
X73477Y115104D01*
X60660D01*
X60104Y115660D01*
Y138577D01*
X60235Y138708D01*
X60475Y139287D01*
Y139913D01*
X60235Y140492D01*
X59792Y140935D01*
X59213Y141175D01*
D02*
G37*
G36*
X85669Y113356D02*
X84919D01*
Y109569D01*
X89890D01*
X89809Y110179D01*
X89381Y111213D01*
X88700Y112100D01*
X87812Y112782D01*
X86778Y113210D01*
X85669Y113356D01*
D02*
G37*
G36*
X83919D02*
X83169D01*
X82059Y113210D01*
X81025Y112782D01*
X80138Y112100D01*
X79456Y111213D01*
X79028Y110179D01*
X78948Y109569D01*
X83919D01*
Y113356D01*
D02*
G37*
G36*
X89890Y108569D02*
X84919D01*
Y104783D01*
X85669D01*
X86778Y104929D01*
X87812Y105357D01*
X88700Y106038D01*
X89381Y106926D01*
X89809Y107960D01*
X89890Y108569D01*
D02*
G37*
G36*
X83919D02*
X78948D01*
X79028Y107960D01*
X79456Y106926D01*
X80138Y106038D01*
X81025Y105357D01*
X82059Y104929D01*
X83169Y104783D01*
X83919D01*
Y108569D01*
D02*
G37*
G36*
X96850Y107689D02*
X94350D01*
X93296Y107550D01*
X92314Y107143D01*
X91470Y106496D01*
X90823Y105653D01*
X90417Y104671D01*
X90278Y103617D01*
X90417Y102563D01*
X90823Y101581D01*
X91470Y100737D01*
X92314Y100090D01*
X93296Y99683D01*
X94350Y99544D01*
X96850D01*
X97904Y99683D01*
X98886Y100090D01*
X99730Y100737D01*
X100377Y101581D01*
X100784Y102563D01*
X100922Y103617D01*
X100784Y104671D01*
X100377Y105653D01*
X99730Y106496D01*
X98886Y107143D01*
X97904Y107550D01*
X96850Y107689D01*
D02*
G37*
G36*
X85669Y102236D02*
X83169D01*
X82115Y102097D01*
X81133Y101690D01*
X80289Y101043D01*
X79642Y100200D01*
X79235Y99218D01*
X79097Y98164D01*
X79235Y97110D01*
X79642Y96128D01*
X80289Y95284D01*
X81133Y94637D01*
X82115Y94230D01*
X83169Y94092D01*
X85669D01*
X86723Y94230D01*
X87705Y94637D01*
X88548Y95284D01*
X89196Y96128D01*
X89602Y97110D01*
X89741Y98164D01*
X89602Y99218D01*
X89196Y100200D01*
X88548Y101043D01*
X87705Y101690D01*
X86723Y102097D01*
X85669Y102236D01*
D02*
G37*
G36*
X61300Y91328D02*
Y90100D01*
X62528D01*
X62315Y90613D01*
X61813Y91115D01*
X61300Y91328D01*
D02*
G37*
G36*
X60300D02*
X59787Y91115D01*
X59285Y90613D01*
X59072Y90100D01*
X60300D01*
Y91328D01*
D02*
G37*
G36*
X96850Y96783D02*
X94350D01*
X93296Y96645D01*
X92314Y96238D01*
X91470Y95591D01*
X90823Y94747D01*
X90417Y93765D01*
X90278Y92711D01*
X90417Y91657D01*
X90823Y90675D01*
X91470Y89832D01*
X92314Y89184D01*
X93296Y88778D01*
X94350Y88639D01*
X96850D01*
X97904Y88778D01*
X98886Y89184D01*
X99730Y89832D01*
X100377Y90675D01*
X100784Y91657D01*
X100922Y92711D01*
X100784Y93765D01*
X100377Y94747D01*
X99730Y95591D01*
X98886Y96238D01*
X97904Y96645D01*
X96850Y96783D01*
D02*
G37*
G36*
X62528Y89100D02*
X61300D01*
Y87872D01*
X61813Y88085D01*
X62315Y88587D01*
X62528Y89100D01*
D02*
G37*
G36*
X60300D02*
X59072D01*
X59285Y88587D01*
X59787Y88085D01*
X60300Y87872D01*
Y89100D01*
D02*
G37*
G36*
X85669Y91330D02*
X83169D01*
X82115Y91192D01*
X81133Y90785D01*
X80289Y90138D01*
X79642Y89294D01*
X79422Y88764D01*
X72258D01*
X71682Y88649D01*
X71194Y88323D01*
X67976Y85105D01*
X67650Y84617D01*
X67536Y84041D01*
Y72090D01*
X63561D01*
X63139Y72006D01*
X62781Y71766D01*
X62542Y71408D01*
X62458Y70986D01*
Y69214D01*
X62542Y68792D01*
X62781Y68434D01*
X63139Y68194D01*
X63561Y68110D01*
X70727D01*
X71149Y68194D01*
X71507Y68434D01*
X71747Y68792D01*
X71831Y69214D01*
Y70986D01*
X71747Y71408D01*
X71507Y71766D01*
X71149Y72006D01*
X70727Y72090D01*
X70546D01*
Y83417D01*
X72882Y85753D01*
X79422D01*
X79642Y85222D01*
X80289Y84379D01*
X81133Y83732D01*
X82115Y83325D01*
X83169Y83186D01*
X85669D01*
X86723Y83325D01*
X87705Y83732D01*
X88548Y84379D01*
X89196Y85222D01*
X89602Y86204D01*
X89741Y87258D01*
X89602Y88312D01*
X89196Y89294D01*
X88548Y90138D01*
X87705Y90785D01*
X86723Y91192D01*
X85669Y91330D01*
D02*
G37*
G36*
X96850Y85878D02*
X94350D01*
X93296Y85739D01*
X92314Y85332D01*
X91470Y84685D01*
X90823Y83842D01*
X90417Y82859D01*
X90278Y81805D01*
X90417Y80752D01*
X90823Y79769D01*
X91470Y78926D01*
X92314Y78279D01*
X93296Y77872D01*
X94350Y77733D01*
X96850D01*
X97904Y77872D01*
X98886Y78279D01*
X99730Y78926D01*
X100377Y79769D01*
X100784Y80752D01*
X100922Y81805D01*
X100784Y82859D01*
X100377Y83842D01*
X99730Y84685D01*
X98886Y85332D01*
X97904Y85739D01*
X96850Y85878D01*
D02*
G37*
G36*
X85669Y80425D02*
X83169D01*
X82115Y80286D01*
X81133Y79879D01*
X80289Y79232D01*
X79642Y78389D01*
X79235Y77407D01*
X79097Y76353D01*
X79235Y75299D01*
X79642Y74317D01*
X79908Y73971D01*
X73035Y67097D01*
X67636D01*
X67598Y67090D01*
X63561D01*
X63139Y67006D01*
X62781Y66766D01*
X62542Y66408D01*
X62458Y65986D01*
Y64214D01*
X62542Y63792D01*
X62781Y63434D01*
X63139Y63194D01*
X63561Y63110D01*
X70727D01*
X71149Y63194D01*
X71507Y63434D01*
X71747Y63792D01*
X71805Y64087D01*
X73658D01*
X74234Y64201D01*
X74722Y64528D01*
X78670Y68475D01*
X79131Y68283D01*
Y61410D01*
X89706D01*
Y69485D01*
X80333D01*
X80141Y69947D01*
X82556Y72361D01*
X83169Y72281D01*
X85669D01*
X86723Y72419D01*
X87705Y72826D01*
X88548Y73473D01*
X89196Y74317D01*
X89602Y75299D01*
X89741Y76353D01*
X89602Y77407D01*
X89196Y78389D01*
X88548Y79232D01*
X87705Y79879D01*
X86723Y80286D01*
X85669Y80425D01*
D02*
G37*
G36*
X96850Y74972D02*
X94350D01*
X93296Y74834D01*
X92314Y74427D01*
X91470Y73779D01*
X90823Y72936D01*
X90417Y71954D01*
X90278Y70900D01*
X90417Y69846D01*
X90823Y68864D01*
X91470Y68020D01*
X92314Y67373D01*
X93296Y66966D01*
X94350Y66828D01*
X96850D01*
X97904Y66966D01*
X98886Y67373D01*
X99730Y68020D01*
X100377Y68864D01*
X100784Y69846D01*
X100922Y70900D01*
X100784Y71954D01*
X100377Y72936D01*
X99730Y73779D01*
X98886Y74427D01*
X97904Y74834D01*
X96850Y74972D01*
D02*
G37*
G36*
X51239Y62090D02*
X44073D01*
X43651Y62006D01*
X43293Y61766D01*
X43053Y61408D01*
X42969Y60986D01*
Y59214D01*
X43053Y58792D01*
X43293Y58434D01*
X43651Y58194D01*
X44073Y58110D01*
X51239D01*
X51661Y58194D01*
X52019Y58434D01*
X52258Y58792D01*
X52342Y59214D01*
Y60986D01*
X52258Y61408D01*
X52019Y61766D01*
X51661Y62006D01*
X51239Y62090D01*
D02*
G37*
G36*
X70727Y57090D02*
X63561D01*
X63139Y57006D01*
X62781Y56766D01*
X62673Y56605D01*
X61903D01*
X61556Y56674D01*
X61313Y56775D01*
X60687D01*
X60108Y56535D01*
X59665Y56092D01*
X59425Y55513D01*
Y54887D01*
X59665Y54308D01*
X60108Y53865D01*
X60687Y53625D01*
X61313D01*
X61324Y53630D01*
X61500Y53595D01*
X62673D01*
X62781Y53434D01*
X63139Y53194D01*
X63561Y53110D01*
X70727D01*
X71149Y53194D01*
X71507Y53434D01*
X71747Y53792D01*
X71831Y54214D01*
Y55986D01*
X71747Y56408D01*
X71507Y56766D01*
X71149Y57006D01*
X70727Y57090D01*
D02*
G37*
G36*
X18700Y56528D02*
Y55300D01*
X19928D01*
X19715Y55813D01*
X19212Y56315D01*
X18700Y56528D01*
D02*
G37*
G36*
X17700D02*
X17188Y56315D01*
X16685Y55813D01*
X16472Y55300D01*
X17700D01*
Y56528D01*
D02*
G37*
G36*
X70727Y62090D02*
X63561D01*
X63139Y62006D01*
X62781Y61766D01*
X62542Y61408D01*
X62458Y60986D01*
Y59214D01*
X62542Y58792D01*
X62781Y58434D01*
X63139Y58194D01*
X63561Y58110D01*
X70727D01*
X71149Y58194D01*
X71505Y58432D01*
X72995D01*
Y55381D01*
X72925Y55213D01*
Y54587D01*
X73165Y54008D01*
X73608Y53565D01*
X74187Y53325D01*
X74813D01*
X75392Y53565D01*
X75835Y54008D01*
X76075Y54587D01*
Y55213D01*
X76005Y55381D01*
Y59131D01*
X75891Y59706D01*
X75564Y60195D01*
X74757Y61002D01*
X74269Y61328D01*
X73693Y61443D01*
X71723D01*
X71507Y61766D01*
X71149Y62006D01*
X70727Y62090D01*
D02*
G37*
G36*
X51239Y57090D02*
X44073D01*
X43651Y57006D01*
X43293Y56766D01*
X43053Y56408D01*
X42969Y55986D01*
Y54214D01*
X43053Y53792D01*
X43293Y53434D01*
X43651Y53194D01*
X44073Y53110D01*
X51239D01*
X51661Y53194D01*
X52019Y53434D01*
X52258Y53792D01*
X52342Y54214D01*
Y55986D01*
X52258Y56408D01*
X52019Y56766D01*
X51661Y57006D01*
X51239Y57090D01*
D02*
G37*
G36*
X19928Y54300D02*
X18700D01*
Y53072D01*
X19212Y53285D01*
X19715Y53787D01*
X19928Y54300D01*
D02*
G37*
G36*
X17700D02*
X16472D01*
X16685Y53787D01*
X17188Y53285D01*
X17700Y53072D01*
Y54300D01*
D02*
G37*
G36*
X11953Y53970D02*
Y51600D01*
X14421D01*
Y53970D01*
X11953D01*
D02*
G37*
G36*
X70727Y52090D02*
X63561D01*
X63139Y52006D01*
X62781Y51766D01*
X62632Y51543D01*
X61590D01*
X61513Y51575D01*
X60887D01*
X60308Y51335D01*
X59865Y50892D01*
X59625Y50313D01*
Y49687D01*
X59865Y49108D01*
X60308Y48665D01*
X60887Y48425D01*
X61513D01*
X61772Y48532D01*
X62715D01*
X62781Y48434D01*
X63139Y48194D01*
X63561Y48110D01*
X70727D01*
X71149Y48194D01*
X71507Y48434D01*
X71747Y48792D01*
X71831Y49214D01*
Y50986D01*
X71747Y51408D01*
X71507Y51766D01*
X71149Y52006D01*
X70727Y52090D01*
D02*
G37*
G36*
X33453Y53870D02*
Y51500D01*
X35921D01*
Y53870D01*
X33453D01*
D02*
G37*
G36*
X14421Y50600D02*
X11953D01*
Y48230D01*
X14421D01*
Y50600D01*
D02*
G37*
G36*
X35921Y50500D02*
X33453D01*
Y48130D01*
X35921D01*
Y50500D01*
D02*
G37*
G36*
X51239Y52090D02*
X44073D01*
X43651Y52006D01*
X43293Y51766D01*
X43053Y51408D01*
X42969Y50986D01*
Y49214D01*
X43053Y48792D01*
X43293Y48434D01*
X43651Y48194D01*
X44073Y48110D01*
X51239D01*
X51661Y48194D01*
X52019Y48434D01*
X52258Y48792D01*
X52342Y49214D01*
Y50986D01*
X52258Y51408D01*
X52019Y51766D01*
X51661Y52006D01*
X51239Y52090D01*
D02*
G37*
G36*
X70727Y47090D02*
X63561D01*
X63139Y47006D01*
X62781Y46766D01*
X62542Y46408D01*
X62501Y46205D01*
X60800D01*
X60224Y46091D01*
X59736Y45764D01*
X58536Y44564D01*
X58209Y44076D01*
X58095Y43500D01*
Y30957D01*
X58095Y30934D01*
X57958Y30916D01*
X57489Y30870D01*
X57489Y30870D01*
X57489Y30870D01*
X55153D01*
Y28500D01*
X57621D01*
Y30370D01*
X57621Y30417D01*
X58121Y30466D01*
X58128Y30434D01*
X58209Y30024D01*
X58536Y29536D01*
X59755Y28317D01*
X60243Y27990D01*
X60291Y27981D01*
Y25543D01*
X65697D01*
X65803Y25543D01*
X66197D01*
X66303Y25543D01*
X71709D01*
Y30858D01*
X70405D01*
Y33110D01*
X70727D01*
X71149Y33194D01*
X71507Y33434D01*
X71747Y33792D01*
X71831Y34214D01*
Y35986D01*
X71747Y36408D01*
X71507Y36766D01*
X71149Y37006D01*
X70727Y37090D01*
X63561D01*
X63139Y37006D01*
X62781Y36766D01*
X62542Y36408D01*
X62458Y35986D01*
Y34214D01*
X62542Y33792D01*
X62781Y33434D01*
X63139Y33194D01*
X63561Y33110D01*
X67395D01*
Y30858D01*
X66303D01*
X66197Y30858D01*
X65803D01*
X65697Y30858D01*
X62011D01*
X61866Y30886D01*
X61442D01*
X61105Y31223D01*
Y42876D01*
X61423Y43195D01*
X63138D01*
X63139Y43194D01*
X63561Y43110D01*
X70727D01*
X71149Y43194D01*
X71507Y43434D01*
X71747Y43792D01*
X71831Y44214D01*
Y45986D01*
X71747Y46408D01*
X71507Y46766D01*
X71149Y47006D01*
X70727Y47090D01*
D02*
G37*
G36*
X51239D02*
X44073D01*
X43651Y47006D01*
X43293Y46766D01*
X43053Y46408D01*
X42969Y45986D01*
Y44214D01*
X43053Y43792D01*
X43293Y43434D01*
X43651Y43194D01*
X44073Y43110D01*
X51239D01*
X51661Y43194D01*
X52019Y43434D01*
X52258Y43792D01*
X52342Y44214D01*
Y45986D01*
X52258Y46408D01*
X52019Y46766D01*
X51661Y47006D01*
X51239Y47090D01*
D02*
G37*
G36*
X40900Y43428D02*
Y42200D01*
X42128D01*
X41915Y42713D01*
X41412Y43215D01*
X40900Y43428D01*
D02*
G37*
G36*
X51239Y42307D02*
X48156D01*
Y40600D01*
X52559D01*
Y40986D01*
X52459Y41491D01*
X52172Y41920D01*
X51744Y42206D01*
X51239Y42307D01*
D02*
G37*
G36*
X47156D02*
X44073D01*
X43568Y42206D01*
X43139Y41920D01*
X42853Y41491D01*
X42753Y40986D01*
Y40600D01*
X47156D01*
Y42307D01*
D02*
G37*
G36*
X42128Y41200D02*
X40900D01*
Y39972D01*
X41412Y40185D01*
X41915Y40688D01*
X42128Y41200D01*
D02*
G37*
G36*
X39900D02*
X38672D01*
X38885Y40688D01*
X39388Y40185D01*
X39900Y39972D01*
Y41200D01*
D02*
G37*
G36*
X70727Y42090D02*
X63561D01*
X63139Y42006D01*
X62781Y41766D01*
X62542Y41408D01*
X62458Y40986D01*
Y39214D01*
X62542Y38792D01*
X62781Y38434D01*
X63139Y38194D01*
X63561Y38110D01*
X70727D01*
X71149Y38194D01*
X71299Y38295D01*
X73719D01*
X73887Y38225D01*
X74513D01*
X75092Y38465D01*
X75535Y38908D01*
X75775Y39487D01*
Y40113D01*
X75535Y40692D01*
X75092Y41135D01*
X74513Y41375D01*
X73887D01*
X73719Y41305D01*
X71767D01*
X71747Y41408D01*
X71507Y41766D01*
X71149Y42006D01*
X70727Y42090D01*
D02*
G37*
G36*
X52559Y39600D02*
X48156D01*
Y37894D01*
X51239D01*
X51744Y37994D01*
X52172Y38280D01*
X52459Y38709D01*
X52559Y39214D01*
Y39600D01*
D02*
G37*
G36*
X47156D02*
X42753D01*
Y39214D01*
X42853Y38709D01*
X43139Y38280D01*
X43568Y37994D01*
X44073Y37894D01*
X47156D01*
Y39600D01*
D02*
G37*
G36*
X16218Y38676D02*
X15882D01*
Y37063D01*
X17790D01*
Y37104D01*
X17670Y37706D01*
X17330Y38216D01*
X16820Y38556D01*
X16218Y38676D01*
D02*
G37*
G36*
X14882D02*
X14545D01*
X13944Y38556D01*
X13434Y38216D01*
X13093Y37706D01*
X12974Y37104D01*
Y37063D01*
X14882D01*
Y38676D01*
D02*
G37*
G36*
X37829Y38476D02*
X37492D01*
Y36863D01*
X39400D01*
Y36904D01*
X39281Y37506D01*
X38940Y38016D01*
X38430Y38356D01*
X37829Y38476D01*
D02*
G37*
G36*
X23065D02*
X22728D01*
Y36863D01*
X24636D01*
Y36904D01*
X24517Y37506D01*
X24176Y38016D01*
X23666Y38356D01*
X23065Y38476D01*
D02*
G37*
G36*
X36492D02*
X36155D01*
X35554Y38356D01*
X35044Y38016D01*
X34703Y37506D01*
X34584Y36904D01*
Y36863D01*
X36492D01*
Y38476D01*
D02*
G37*
G36*
X21728D02*
X21392D01*
X20790Y38356D01*
X20280Y38016D01*
X19940Y37506D01*
X19820Y36904D01*
Y36863D01*
X21728D01*
Y38476D01*
D02*
G37*
G36*
X17790Y36063D02*
X15882D01*
Y34450D01*
X16218D01*
X16820Y34570D01*
X17330Y34910D01*
X17670Y35420D01*
X17790Y36022D01*
Y36063D01*
D02*
G37*
G36*
X14882D02*
X12974D01*
Y36022D01*
X13093Y35420D01*
X13434Y34910D01*
X13944Y34570D01*
X14545Y34450D01*
X14882D01*
Y36063D01*
D02*
G37*
G36*
X39400Y35863D02*
X37492D01*
Y34250D01*
X37829D01*
X38430Y34370D01*
X38940Y34710D01*
X39281Y35220D01*
X39400Y35822D01*
Y35863D01*
D02*
G37*
G36*
X36492D02*
X34584D01*
Y35822D01*
X34703Y35220D01*
X35044Y34710D01*
X35554Y34370D01*
X36155Y34250D01*
X36492D01*
Y35863D01*
D02*
G37*
G36*
X24636D02*
X22728D01*
Y34250D01*
X23065D01*
X23666Y34370D01*
X24176Y34710D01*
X24517Y35220D01*
X24636Y35822D01*
Y35863D01*
D02*
G37*
G36*
X21728D02*
X19820D01*
Y35822D01*
X19940Y35220D01*
X20280Y34710D01*
X20790Y34370D01*
X21392Y34250D01*
X21728D01*
Y35863D01*
D02*
G37*
G36*
X91010Y48223D02*
X89009D01*
X87047Y47833D01*
X85198Y47067D01*
X83534Y45955D01*
X82120Y44540D01*
X81008Y42877D01*
X80242Y41028D01*
X79852Y39066D01*
Y37065D01*
X80242Y35103D01*
X81008Y33254D01*
X82120Y31590D01*
X83534Y30176D01*
X85198Y29064D01*
X87047Y28298D01*
X89009Y27908D01*
X91010D01*
X92972Y28298D01*
X94821Y29064D01*
X96484Y30176D01*
X97899Y31590D01*
X99011Y33254D01*
X99777Y35103D01*
X100167Y37065D01*
Y39066D01*
X99777Y41028D01*
X99011Y42877D01*
X97899Y44540D01*
X96484Y45955D01*
X94821Y47067D01*
X92972Y47833D01*
X91010Y48223D01*
D02*
G37*
G36*
X21200Y27628D02*
Y26400D01*
X22428D01*
X22215Y26913D01*
X21712Y27415D01*
X21200Y27628D01*
D02*
G37*
G36*
X20200D02*
X19688Y27415D01*
X19185Y26913D01*
X18972Y26400D01*
X20200D01*
Y27628D01*
D02*
G37*
G36*
X41828Y75300D02*
X40600D01*
Y74072D01*
X41113Y74285D01*
X41615Y74787D01*
X41828Y75300D01*
D02*
G37*
G36*
X39600D02*
X38372D01*
X38585Y74787D01*
X39088Y74285D01*
X39600Y74072D01*
Y75300D01*
D02*
G37*
G36*
X500Y51128D02*
Y49900D01*
X1728D01*
X1515Y50412D01*
X1013Y50915D01*
X500Y51128D01*
D02*
G37*
G36*
X-500D02*
X-1013Y50915D01*
X-1515Y50412D01*
X-1728Y49900D01*
X-500D01*
Y51128D01*
D02*
G37*
G36*
X1728Y48900D02*
X500D01*
Y47672D01*
X1013Y47885D01*
X1515Y48388D01*
X1728Y48900D01*
D02*
G37*
G36*
X-500D02*
X-1728D01*
X-1515Y48388D01*
X-1013Y47885D01*
X-500Y47672D01*
Y48900D01*
D02*
G37*
G36*
X118Y38676D02*
X-219D01*
X-820Y38556D01*
X-1330Y38216D01*
X-1670Y37706D01*
X-1790Y37104D01*
Y37063D01*
X118D01*
Y38676D01*
D02*
G37*
G36*
X1455D02*
X1118D01*
Y36563D01*
Y34450D01*
X1455D01*
X2056Y34570D01*
X2503Y34869D01*
X2688Y34685D01*
X3200Y34472D01*
Y36200D01*
Y37928D01*
X2854Y37784D01*
X2566Y38216D01*
X2056Y38556D01*
X1455Y38676D01*
D02*
G37*
G36*
X118Y36063D02*
X-1790D01*
Y36022D01*
X-1670Y35420D01*
X-1330Y34910D01*
X-820Y34570D01*
X-219Y34450D01*
X118D01*
Y36063D01*
D02*
G37*
G36*
X-12900Y46428D02*
Y45200D01*
X-11672D01*
X-11885Y45713D01*
X-12387Y46215D01*
X-12900Y46428D01*
D02*
G37*
G36*
X-13900D02*
X-14412Y46215D01*
X-14915Y45713D01*
X-15128Y45200D01*
X-13900D01*
Y46428D01*
D02*
G37*
G36*
X-11672Y44200D02*
X-12900D01*
Y42972D01*
X-12387Y43185D01*
X-11885Y43687D01*
X-11672Y44200D01*
D02*
G37*
G36*
X-13900D02*
X-15128D01*
X-14915Y43687D01*
X-14412Y43185D01*
X-13900Y42972D01*
Y44200D01*
D02*
G37*
%LPD*%
D13*
X60161Y113900D02*
X74500D01*
X58900Y115161D02*
X60161Y113900D01*
X58900Y115161D02*
Y139600D01*
X26600Y132200D02*
Y137066D01*
X25600Y138066D02*
X26600Y137066D01*
X24485Y126000D02*
X33500D01*
X23085Y124600D02*
X24485Y126000D01*
X22900Y124500D02*
X23000Y124600D01*
X23085D01*
X37300Y131000D02*
X39900Y133600D01*
X33700Y131000D02*
X37300D01*
X64278Y119500D02*
X74400D01*
X63800Y119978D02*
X64278Y119500D01*
X63800Y119978D02*
Y139556D01*
X55356Y148000D02*
X63800Y139556D01*
X6000Y44400D02*
Y50647D01*
X852Y44400D02*
X6000D01*
X5547Y51100D02*
X6000Y50647D01*
Y29953D02*
Y44400D01*
X15345D01*
X4847Y28800D02*
X6000Y29953D01*
X23863Y148000D02*
X24100Y147763D01*
Y145900D02*
Y147763D01*
X-18100Y145800D02*
Y147972D01*
X-18128Y148000D02*
X-18100Y147972D01*
X24949Y144100D02*
X28849Y148000D01*
X17209Y141609D02*
X19700Y144100D01*
X24949D01*
X39900Y133600D02*
Y142461D01*
X34361Y148000D02*
X39900Y142461D01*
X39927Y145673D02*
X42400Y143200D01*
X39927Y145673D02*
Y147419D01*
X42400Y131900D02*
Y143200D01*
X17175Y141609D02*
X17209D01*
X15600Y140034D02*
X17175Y141609D01*
X15600Y138066D02*
Y140034D01*
X13365Y148000D02*
X13400Y147965D01*
Y145800D02*
Y147965D01*
X-7700Y145800D02*
Y147930D01*
X-7630Y148000D01*
X2900Y145900D02*
Y147968D01*
X2868Y148000D02*
X2900Y147968D01*
X27000Y51047D02*
Y57400D01*
Y51047D02*
X27047Y51000D01*
X26900Y44237D02*
X36992D01*
X22437D02*
X26900D01*
Y50700D01*
Y29753D02*
Y44237D01*
X26147Y29000D02*
X26900Y29753D01*
Y50700D02*
X27047Y50847D01*
Y51000D01*
X22425Y44225D02*
X22437Y44237D01*
X22400Y44200D02*
X22425Y44225D01*
X34562Y143976D02*
X35300Y143239D01*
X32324Y143976D02*
X34562D01*
X32200Y144100D02*
X32324Y143976D01*
X35300Y138366D02*
X35600Y138066D01*
X35300Y138366D02*
Y143239D01*
X50000Y117500D02*
Y147844D01*
Y70887D02*
Y117500D01*
X35900Y74454D02*
Y128400D01*
X23600D02*
X35900D01*
X38900D01*
X35900Y74454D02*
X44172Y66183D01*
X2000Y121800D02*
X31200D01*
X-9400Y133200D02*
X2000Y121800D01*
X44959Y65100D02*
X47656D01*
X44172Y65887D02*
X44959Y65100D01*
X44172Y65887D02*
Y66183D01*
X20600Y131400D02*
X23600Y128400D01*
X38900D02*
X42400Y131900D01*
X44900Y129600D02*
Y147958D01*
X47656Y70100D02*
X49213D01*
X49844Y148000D02*
X50000Y147844D01*
X49213Y70100D02*
X50000Y70887D01*
X3800Y115100D02*
X32300D01*
X-14509Y133409D02*
X3800Y115100D01*
X815Y44437D02*
X852Y44400D01*
X15345D02*
X15382Y44437D01*
X44858Y148000D02*
X44900Y147958D01*
X39346Y148000D02*
X39927Y147419D01*
X20600Y131400D02*
Y138066D01*
X-14509Y133409D02*
Y137957D01*
X-14400Y138066D01*
X-9400Y133200D02*
Y138066D01*
X12175Y141824D02*
X18351Y148000D01*
X12175Y139641D02*
Y141824D01*
X10600Y138066D02*
X12175Y139641D01*
X5600Y145747D02*
X7400Y147547D01*
X5600Y138066D02*
Y145747D01*
X7400Y147547D02*
Y147700D01*
X7700Y148000D02*
X7853D01*
X7400Y147700D02*
X7700Y148000D01*
X-4400Y138066D02*
Y146244D01*
X-2644Y148000D01*
X-13342Y147800D02*
X-12900D01*
X-13929Y147213D02*
X-13342Y147800D01*
X-13929Y146771D02*
Y147213D01*
X-17825Y142875D02*
X-13929Y146771D01*
X-17825Y139641D02*
Y142875D01*
X-19400Y138066D02*
X-17825Y139641D01*
X-13100Y148000D02*
X-12900Y147800D01*
X-13142Y148000D02*
X-13100D01*
X-24400Y138066D02*
Y147239D01*
X-23639Y148000D01*
D19*
X26147Y29000D02*
D03*
X32053D02*
D03*
X27047Y51000D02*
D03*
X32953D02*
D03*
X4847Y28800D02*
D03*
X10753D02*
D03*
X5547Y51100D02*
D03*
X11453D02*
D03*
X63047Y28200D02*
D03*
X68953D02*
D03*
X54653Y28000D02*
D03*
X48747D02*
D03*
D20*
X41505Y125133D02*
D03*
Y80133D02*
D03*
Y85133D02*
D03*
Y90133D02*
D03*
Y95133D02*
D03*
Y100133D02*
D03*
Y105133D02*
D03*
Y110133D02*
D03*
Y115133D02*
D03*
Y120133D02*
D03*
D21*
X1400Y98600D02*
D03*
D22*
X-29400Y138066D02*
D03*
X-24400D02*
D03*
X-19400D02*
D03*
X-14400D02*
D03*
X-9400D02*
D03*
X-4400D02*
D03*
X600D02*
D03*
X5600D02*
D03*
X10600D02*
D03*
X15600D02*
D03*
X20600D02*
D03*
X25600D02*
D03*
X30600D02*
D03*
X35600D02*
D03*
X10600Y67200D02*
D03*
X15600D02*
D03*
X20600D02*
D03*
X25600D02*
D03*
X30600D02*
D03*
X35600D02*
D03*
X-4400D02*
D03*
X600D02*
D03*
X5600D02*
D03*
X-9400D02*
D03*
X-24400D02*
D03*
X-29400D02*
D03*
X-14400D02*
D03*
X-19400D02*
D03*
D23*
X39346Y148000D02*
D03*
X44858D02*
D03*
X28849D02*
D03*
X34361D02*
D03*
X18351D02*
D03*
X23863D02*
D03*
X7853D02*
D03*
X13365D02*
D03*
X-2644D02*
D03*
X2868D02*
D03*
X-13142D02*
D03*
X-7630D02*
D03*
X-23639D02*
D03*
X-18128D02*
D03*
X-34137D02*
D03*
X-28625D02*
D03*
X49844D02*
D03*
X55356D02*
D03*
D24*
X42102Y146819D02*
D03*
X31605D02*
D03*
X21107D02*
D03*
X10609D02*
D03*
X112D02*
D03*
X-10386D02*
D03*
X-20884D02*
D03*
X-31381D02*
D03*
X52600D02*
D03*
D25*
X-27942Y28586D02*
D03*
X-18100D02*
D03*
X-8258D02*
D03*
X-27942Y51814D02*
D03*
X-18100D02*
D03*
X-8258D02*
D03*
D26*
X15382Y36563D02*
D03*
Y44437D02*
D03*
X815D02*
D03*
X618Y36563D02*
D03*
X36992Y36363D02*
D03*
Y44237D02*
D03*
X22425D02*
D03*
X22228Y36363D02*
D03*
D27*
X47656Y35100D02*
D03*
Y40100D02*
D03*
Y45100D02*
D03*
Y50100D02*
D03*
Y55100D02*
D03*
Y60100D02*
D03*
Y65100D02*
D03*
Y70100D02*
D03*
X67144D02*
D03*
Y65100D02*
D03*
Y60100D02*
D03*
Y55100D02*
D03*
Y50100D02*
D03*
Y45100D02*
D03*
Y40100D02*
D03*
Y35100D02*
D03*
D42*
X10700Y28747D02*
X10753Y28800D01*
X10700Y25500D02*
Y28747D01*
X1500Y76800D02*
X1700Y77000D01*
X32500D01*
X32600Y77100D01*
X-9572Y50500D02*
X-8400Y51672D01*
X-8258Y51814D01*
X-12400Y50500D02*
X-9572D01*
X-23800Y81500D02*
Y121347D01*
X-22647Y122500D02*
X-13500D01*
X-23800Y121347D02*
X-22647Y122500D01*
X-23700Y67900D02*
Y81400D01*
X-24400Y67200D02*
X-23700Y67900D01*
X32100Y28900D02*
X47749D01*
X48649Y28000D01*
X48747D01*
X32053Y28947D02*
Y29000D01*
Y28947D02*
X32100Y28900D01*
X48550Y35100D02*
X48747Y34903D01*
Y28000D02*
Y34903D01*
X47656Y35100D02*
X48550D01*
D43*
X-29200Y107600D02*
Y126447D01*
X-28700Y126947D02*
Y127000D01*
X-29200Y126447D02*
X-28700Y126947D01*
X-34400Y46500D02*
Y56300D01*
X-23138Y54138D02*
Y59038D01*
X-24400Y60300D02*
Y67200D01*
Y60300D02*
X-23138Y59038D01*
X-23600Y81500D02*
X11900D01*
X-23800D02*
X-23600D01*
X-23700Y81400D02*
X-23600Y81500D01*
X-24000Y81100D02*
X-23700Y81400D01*
X-23138Y54138D02*
X-23100Y54100D01*
X-34400Y46500D02*
X-30800Y42900D01*
X-4400Y67200D02*
X-3638Y66438D01*
Y60238D02*
Y66438D01*
Y60238D02*
X-3600Y60200D01*
X73693Y59938D02*
X74500Y59131D01*
X67306Y59938D02*
X73693D01*
X74500Y54900D02*
Y59131D01*
X15250Y84850D02*
Y93093D01*
X16057Y93900D01*
X28700D01*
X53400Y93600D02*
Y139000D01*
X61238Y50038D02*
X66562D01*
X61200Y50000D02*
X61238Y50038D01*
X66562D02*
X66800Y49800D01*
X67100Y50100D02*
X67144D01*
X66800Y49800D02*
X67100Y50100D01*
X61500Y55100D02*
X67144D01*
X61400Y55200D02*
X61500Y55100D01*
X61000Y55200D02*
X61400D01*
X-17500Y30170D02*
Y51214D01*
Y30170D02*
X-16427Y31243D01*
X-15620Y31262D02*
X-13338D01*
X-16427Y31243D02*
X-15639D01*
X-15620Y31262D01*
X-17500Y29186D02*
Y30170D01*
X-18100Y28586D02*
Y29427D01*
X-13338Y31262D02*
X-13300Y31300D01*
X67636Y65592D02*
X73658D01*
X84419Y76353D01*
X67144Y65100D02*
X67636Y65592D01*
X69041Y70592D02*
Y84041D01*
X72258Y87258D02*
X84419D01*
X69041Y84041D02*
X72258Y87258D01*
X11900Y81500D02*
X15250Y84850D01*
X67144Y60100D02*
X67306Y59938D01*
X-16300Y57400D02*
X2600D01*
X-19500Y60600D02*
X-16300Y57400D01*
X-19500Y60600D02*
Y65000D01*
X67144Y40100D02*
X67444Y39800D01*
X74200D01*
X22425Y44225D02*
Y44237D01*
X-28700Y145253D02*
X-28625Y145328D01*
X-28700Y145200D02*
Y145253D01*
X-28625Y145328D02*
Y148000D01*
X5547Y51100D02*
Y54453D01*
X2600Y57400D02*
X5547Y54453D01*
X-19400Y65100D02*
Y67200D01*
X-19500Y65000D02*
X-19400Y65100D01*
X-8400Y28728D02*
Y51672D01*
Y28728D02*
X-8258Y28586D01*
X-18100Y51814D02*
X-17500Y51214D01*
X-18100Y28586D02*
X-17500Y29186D01*
X32000Y35900D02*
X32026Y35874D01*
X32000Y29800D02*
X32026Y29826D01*
Y35874D01*
X32000Y29800D02*
X32053Y29747D01*
Y29000D02*
Y29747D01*
X10100Y40000D02*
X10300Y40200D01*
X10100Y29453D02*
Y40000D01*
Y29453D02*
X10753Y28800D01*
X60800Y44700D02*
X67600D01*
X60819Y29381D02*
X61866D01*
X63047Y28200D01*
X59600Y30600D02*
X60819Y29381D01*
X59600Y30600D02*
Y43500D01*
X60800Y44700D01*
X67144Y45100D02*
X67400D01*
X67700Y44800D01*
X67600Y44700D02*
X67700Y44800D01*
X68408Y35100D02*
X68900Y34608D01*
X67144Y35100D02*
X68408D01*
X68900Y28253D02*
Y34608D01*
Y28253D02*
X68953Y28200D01*
X68549Y70100D02*
X69041Y70592D01*
X67144Y70100D02*
X68549D01*
D44*
X95600Y81805D02*
D03*
Y103617D02*
D03*
X84419Y98164D02*
D03*
X95600Y92711D02*
D03*
X84419Y87258D02*
D03*
Y76353D02*
D03*
X95600Y70900D02*
D03*
X84419Y109069D02*
D03*
D45*
X90009Y38065D02*
D03*
Y136451D02*
D03*
D46*
X84419Y65447D02*
D03*
D47*
X10700Y25500D02*
D03*
X74500Y113900D02*
D03*
X58900Y139600D02*
D03*
X26600Y132200D02*
D03*
X33500Y126000D02*
D03*
X33700Y131000D02*
D03*
X-29200Y107600D02*
D03*
X-28700Y127000D02*
D03*
X-34400Y56300D02*
D03*
X-23100Y54100D02*
D03*
X-30800Y42900D02*
D03*
X-12400Y50500D02*
D03*
X-3600Y60200D02*
D03*
X-13500Y122500D02*
D03*
X74500Y54900D02*
D03*
X28700Y93900D02*
D03*
X53400Y93600D02*
D03*
X74400Y119500D02*
D03*
X18200Y54800D02*
D03*
X40100Y75800D02*
D03*
X61200Y50000D02*
D03*
X61000Y55200D02*
D03*
X24100Y145900D02*
D03*
X-18100Y145800D02*
D03*
X-13300Y31300D02*
D03*
X71900Y128000D02*
D03*
X60800Y89600D02*
D03*
X0Y49400D02*
D03*
X40400Y41700D02*
D03*
X20700Y25900D02*
D03*
X-13400Y44700D02*
D03*
X61700Y146100D02*
D03*
X-33400Y131300D02*
D03*
X3700Y36200D02*
D03*
X22800Y82500D02*
D03*
X13400Y145800D02*
D03*
X-7700D02*
D03*
X2900Y145900D02*
D03*
X27000Y57400D02*
D03*
X74200Y39800D02*
D03*
X53400Y139000D02*
D03*
X32200Y144100D02*
D03*
X31200Y121800D02*
D03*
X22900Y124500D02*
D03*
X44900Y129600D02*
D03*
X50000Y117500D02*
D03*
X32300Y115100D02*
D03*
X-28700Y145200D02*
D03*
X32000Y35900D02*
D03*
X10300Y40200D02*
D03*
D48*
X1500Y76800D02*
D03*
X32600Y77100D02*
D03*
M02*
