G04*
G04 #@! TF.GenerationSoftware,Altium Limited,Altium Designer,21.9.2 (33)*
G04*
G04 Layer_Physical_Order=2*
G04 Layer_Color=16711680*
%FSLAX25Y25*%
%MOIN*%
G70*
G04*
G04 #@! TF.SameCoordinates,353233E6-1857-4CDD-983F-46C35F824410*
G04*
G04*
G04 #@! TF.FilePolarity,Positive*
G04*
G01*
G75*
%ADD13C,0.00787*%
%ADD15C,0.01181*%
%ADD19R,0.03937X0.03740*%
%ADD42C,0.01968*%
%ADD43C,0.01378*%
%ADD44O,0.09000X0.06500*%
%ADD45C,0.18740*%
%ADD46R,0.09000X0.06500*%
%ADD47C,0.01575*%
%ADD48C,0.02756*%
%ADD49R,0.03150X0.06299*%
%ADD50R,0.08268X0.11811*%
G04:AMPARAMS|DCode=51|XSize=86.61mil|YSize=86.61mil|CornerRadius=21.65mil|HoleSize=0mil|Usage=FLASHONLY|Rotation=0.000|XOffset=0mil|YOffset=0mil|HoleType=Round|Shape=RoundedRectangle|*
%AMROUNDEDRECTD51*
21,1,0.08661,0.04331,0,0,0.0*
21,1,0.04331,0.08661,0,0,0.0*
1,1,0.04331,0.02165,-0.02165*
1,1,0.04331,-0.02165,-0.02165*
1,1,0.04331,-0.02165,0.02165*
1,1,0.04331,0.02165,0.02165*
%
%ADD51ROUNDEDRECTD51*%
%ADD52R,0.03740X0.03937*%
%ADD53R,0.04724X0.05512*%
%ADD54R,0.09449X0.03937*%
%ADD55R,0.09449X0.12992*%
G36*
X42128Y146610D02*
X33876D01*
Y145359D01*
X33376Y145151D01*
X33092Y145435D01*
X32513Y145675D01*
X31887D01*
X31308Y145435D01*
X30865Y144992D01*
X30625Y144413D01*
Y143787D01*
X30865Y143208D01*
X30576Y142790D01*
X30496Y142756D01*
X30261Y142913D01*
X29800Y143004D01*
X29800Y143004D01*
X18814D01*
X18642Y143279D01*
X18597Y143493D01*
X19799Y144696D01*
X23077D01*
X23208Y144565D01*
X23787Y144325D01*
X24413D01*
X24992Y144565D01*
X25435Y145008D01*
X25675Y145587D01*
Y146213D01*
X25435Y146792D01*
X24992Y147235D01*
X24413Y147475D01*
X23787D01*
X23208Y147235D01*
X23077Y147104D01*
X19300D01*
X19300Y147104D01*
X18839Y147013D01*
X18449Y146751D01*
X15201Y143504D01*
X8414D01*
X8207Y144004D01*
X8799Y144596D01*
X12377D01*
X12508Y144465D01*
X13087Y144225D01*
X13713D01*
X14292Y144465D01*
X14735Y144908D01*
X14975Y145487D01*
Y146113D01*
X14735Y146692D01*
X14292Y147135D01*
X13713Y147375D01*
X13087D01*
X12508Y147135D01*
X12377Y147004D01*
X8300D01*
X8300Y147004D01*
X7839Y146913D01*
X7448Y146651D01*
X3401Y142604D01*
X-1939D01*
X-1939Y142604D01*
X-2400Y142513D01*
X-2790Y142252D01*
X-2790Y142252D01*
X-3252Y141790D01*
X-3513Y141400D01*
X-3604Y140939D01*
X-3604Y140939D01*
Y137909D01*
X-6172D01*
Y132503D01*
X-6172Y132397D01*
Y132003D01*
X-6172Y131897D01*
Y131054D01*
X-7485D01*
Y131897D01*
X-7485Y132003D01*
Y132397D01*
X-7485Y132503D01*
Y137909D01*
X-8939D01*
Y138858D01*
X-3101Y144696D01*
X1877D01*
X2008Y144565D01*
X2587Y144325D01*
X3213D01*
X3792Y144565D01*
X4235Y145008D01*
X4475Y145587D01*
Y146213D01*
X4235Y146792D01*
X3792Y147235D01*
X3213Y147475D01*
X2587D01*
X2008Y147235D01*
X1877Y147104D01*
X-3600D01*
X-3600Y147104D01*
X-4061Y147013D01*
X-4451Y146751D01*
X-5625Y145578D01*
X-6125Y145785D01*
Y146113D01*
X-6365Y146692D01*
X-6808Y147135D01*
X-7387Y147375D01*
X-8013D01*
X-8592Y147135D01*
X-8723Y147004D01*
X-13000D01*
X-13461Y146913D01*
X-13851Y146651D01*
X-13852Y146651D01*
X-17852Y142651D01*
X-18113Y142261D01*
X-18204Y141800D01*
X-18204Y141800D01*
Y137909D01*
X-19429D01*
Y132503D01*
X-19429Y132397D01*
Y132003D01*
X-19429Y131897D01*
Y131054D01*
X-20742D01*
Y131897D01*
X-20742Y132003D01*
Y132397D01*
X-20742Y132503D01*
Y137909D01*
X-22096D01*
Y140101D01*
X-17972Y144225D01*
X-17787D01*
X-17208Y144465D01*
X-16765Y144908D01*
X-16525Y145487D01*
Y146113D01*
X-16765Y146692D01*
X-17208Y147135D01*
X-17787Y147375D01*
X-18413D01*
X-18992Y147135D01*
X-19435Y146692D01*
X-19675Y146113D01*
Y145928D01*
X-24151Y141452D01*
X-24413Y141061D01*
X-24504Y140600D01*
X-24504Y140600D01*
Y137986D01*
X-24591Y137969D01*
X-24681Y137909D01*
X-26057D01*
Y132503D01*
X-26057Y132397D01*
Y132003D01*
X-26057Y131897D01*
Y126491D01*
X-20742D01*
Y127441D01*
X-19429D01*
Y126491D01*
X-15306D01*
Y122500D01*
X-15169Y121809D01*
X-14777Y121223D01*
X-14191Y120831D01*
X-13500Y120694D01*
X-12809Y120831D01*
X-12223Y121223D01*
X-11831Y121809D01*
X-11694Y122500D01*
Y126491D01*
X-7485D01*
Y127441D01*
X-6172D01*
Y126491D01*
X-857D01*
Y127441D01*
X457D01*
Y126491D01*
X5772D01*
Y127441D01*
X7085D01*
Y126491D01*
X12400D01*
Y127441D01*
X13714D01*
Y126491D01*
X19029D01*
Y127441D01*
X20342D01*
Y126491D01*
X22286D01*
X22385Y125991D01*
X22008Y125835D01*
X21565Y125392D01*
X21325Y124813D01*
Y124187D01*
X21565Y123608D01*
X21696Y123477D01*
Y94900D01*
X21696Y94900D01*
X21787Y94439D01*
X22049Y94049D01*
X25796Y90301D01*
Y58423D01*
X25665Y58292D01*
X25425Y57713D01*
Y57087D01*
X25665Y56508D01*
X25868Y56305D01*
X25660Y55805D01*
X23823D01*
X8605Y71023D01*
Y89400D01*
X8491Y89976D01*
X8164Y90464D01*
X-10036Y108664D01*
X-10524Y108991D01*
X-11100Y109105D01*
X-28719D01*
X-28887Y109175D01*
X-29513D01*
X-30092Y108935D01*
X-30535Y108492D01*
X-30775Y107913D01*
Y107287D01*
X-30535Y106708D01*
X-30092Y106265D01*
X-29513Y106025D01*
X-28887D01*
X-28719Y106095D01*
X-11723D01*
X5595Y88776D01*
Y70400D01*
X5709Y69824D01*
X6036Y69336D01*
X18284Y57087D01*
X18077Y56587D01*
X17844D01*
X17188Y56315D01*
X16685Y55813D01*
X16472Y55300D01*
X18200D01*
Y54800D01*
X18700D01*
Y53072D01*
X19212Y53285D01*
X19715Y53787D01*
X19987Y54444D01*
Y54677D01*
X20487Y54884D01*
X22136Y53236D01*
X22603Y52924D01*
X22610Y52886D01*
X22459Y52424D01*
X18717D01*
Y49955D01*
X23942D01*
Y52295D01*
X23942Y52424D01*
X24253Y52795D01*
X31977D01*
X32614Y52157D01*
X32407Y51657D01*
X32097Y51657D01*
X31703D01*
X31597Y51657D01*
X26191D01*
Y46343D01*
X27392D01*
Y42707D01*
X26091D01*
Y41730D01*
X23729D01*
Y43156D01*
X12706D01*
Y41705D01*
X10781D01*
X10613Y41775D01*
X9987D01*
X9819Y41705D01*
X895D01*
Y47683D01*
X1189Y48061D01*
X1515Y48388D01*
X1728Y48900D01*
X-1728D01*
X-1515Y48388D01*
X-1311Y48184D01*
X-1518Y47684D01*
X-10129D01*
Y33328D01*
X-10129Y33117D01*
X-10509Y32828D01*
X-12873D01*
X-12987Y32875D01*
X-13613D01*
X-13690Y32843D01*
X-15293D01*
Y39676D01*
X-15120Y40105D01*
X-15120Y40311D01*
Y43185D01*
X-14620Y43392D01*
X-14412Y43185D01*
X-13900Y42972D01*
Y44700D01*
Y46428D01*
X-14412Y46215D01*
X-14620Y46008D01*
X-15120Y46215D01*
Y47616D01*
X-16108D01*
X-16479Y47930D01*
X-16479Y48116D01*
Y50300D01*
X-19447D01*
Y50800D01*
X-19947D01*
Y53670D01*
X-21447D01*
X-21525Y53787D01*
Y54413D01*
X-21270Y54795D01*
X-7500D01*
X-6924Y54909D01*
X-6436Y55236D01*
X-2876Y58795D01*
X-2708Y58865D01*
X-2265Y59308D01*
X-2025Y59887D01*
Y60513D01*
X-2265Y61092D01*
X-2708Y61535D01*
X-3287Y61775D01*
X-3913D01*
X-4492Y61535D01*
X-4935Y61092D01*
X-5005Y60924D01*
X-8123Y57805D01*
X-23047D01*
X-23130Y58051D01*
X-23177Y58305D01*
X-22731Y58886D01*
X-22433Y59605D01*
X-22332Y60376D01*
Y64706D01*
X-22433Y65477D01*
X-22731Y66195D01*
X-23204Y66812D01*
X-23821Y67286D01*
X-24539Y67583D01*
X-25310Y67685D01*
X-29641D01*
X-30412Y67583D01*
X-31130Y67286D01*
X-31747Y66812D01*
X-32220Y66195D01*
X-32518Y65477D01*
X-32619Y64706D01*
Y60376D01*
X-32518Y59605D01*
X-32220Y58886D01*
X-31774Y58305D01*
X-31821Y58051D01*
X-31905Y57805D01*
X-33919D01*
X-34087Y57875D01*
X-34713D01*
X-34994Y57759D01*
X-35494Y58087D01*
X-35494Y130377D01*
X-34994Y130477D01*
X-34915Y130288D01*
X-34413Y129785D01*
X-33900Y129572D01*
Y131300D01*
Y133028D01*
X-34413Y132815D01*
X-34915Y132313D01*
X-34994Y132123D01*
X-35494Y132223D01*
Y149494D01*
X42128D01*
Y146610D01*
D02*
G37*
G36*
X-8592Y144465D02*
X-8013Y144225D01*
X-7685D01*
X-7478Y143725D01*
X-10994Y140209D01*
X-11255Y139818D01*
X-11347Y139357D01*
X-11347Y139357D01*
Y137909D01*
X-12800D01*
Y132503D01*
X-12800Y132397D01*
Y132003D01*
X-12800Y131897D01*
Y131054D01*
X-14114D01*
Y131897D01*
X-14114Y132003D01*
Y132397D01*
X-14114Y132503D01*
Y137909D01*
X-15796D01*
Y141301D01*
X-12501Y144596D01*
X-8723D01*
X-8592Y144465D01*
D02*
G37*
G36*
X125494Y24706D02*
X22682D01*
X22347Y25206D01*
X22428Y25400D01*
X18972D01*
X19053Y25206D01*
X18719Y24706D01*
X12856D01*
X12448Y25206D01*
X12506Y25500D01*
X12369Y26191D01*
X11977Y26777D01*
X11391Y27169D01*
X10700Y27306D01*
X-29552D01*
X-32194Y29948D01*
Y41359D01*
X-31694Y41567D01*
X-31692Y41565D01*
X-31113Y41325D01*
X-30487D01*
X-30319Y41395D01*
X-29112D01*
Y40366D01*
X-29112Y40317D01*
X-29112D01*
X-29072Y39883D01*
X-29072D01*
Y32796D01*
X-22773D01*
Y39834D01*
X-22773Y39883D01*
X-22773D01*
X-22813Y40317D01*
X-22813D01*
Y47404D01*
X-24637D01*
X-25210Y47518D01*
X-25784Y47404D01*
X-29112D01*
Y44405D01*
X-30319D01*
X-30487Y44475D01*
X-31113D01*
X-31692Y44235D01*
X-31694Y44234D01*
X-32194Y44441D01*
Y45552D01*
X-28752Y48994D01*
X-28109D01*
Y48142D01*
X-22828D01*
X-22416Y47930D01*
D01*
X-21993Y47743D01*
X-21845Y47616D01*
X-21845Y47430D01*
Y44361D01*
X-18482D01*
Y43361D01*
X-21845D01*
X-21845Y40105D01*
X-21592Y39709D01*
X-21592Y39605D01*
Y32796D01*
X-18554D01*
Y32448D01*
X-18439Y31872D01*
X-18113Y31384D01*
X-17002Y30273D01*
X-16514Y29947D01*
X-15938Y29832D01*
X-13872D01*
X-13613Y29725D01*
X-12987D01*
X-12765Y29817D01*
X12706D01*
Y28589D01*
X23729D01*
Y29840D01*
X26191D01*
Y28442D01*
X31472Y28442D01*
X31884Y28230D01*
X32115Y28230D01*
X34353D01*
Y31100D01*
Y33970D01*
X32763D01*
X32663Y34470D01*
X32892Y34565D01*
X33335Y35008D01*
X33575Y35587D01*
Y36213D01*
X33382Y36680D01*
X33601Y37180D01*
X34253D01*
Y40050D01*
Y42920D01*
X31784D01*
Y42920D01*
X31372Y42707D01*
X30402D01*
Y46343D01*
X31597D01*
X31703Y46343D01*
X32097D01*
X32203Y46343D01*
X37609D01*
Y51657D01*
X36005D01*
Y52400D01*
X35891Y52976D01*
X35564Y53464D01*
X33664Y55364D01*
X33176Y55691D01*
X32600Y55805D01*
X28339D01*
X28132Y56305D01*
X28335Y56508D01*
X28575Y57087D01*
Y57713D01*
X28335Y58292D01*
X28204Y58423D01*
Y90800D01*
X28204Y90800D01*
X28113Y91261D01*
X27852Y91651D01*
X27852Y91651D01*
X24104Y95399D01*
Y123477D01*
X24235Y123608D01*
X24475Y124187D01*
Y124813D01*
X24235Y125392D01*
X23792Y125835D01*
X23415Y125991D01*
X23514Y126491D01*
X25396D01*
Y120500D01*
X25396Y120500D01*
X25487Y120039D01*
X25749Y119649D01*
X28749Y116648D01*
X28749Y116648D01*
X29139Y116387D01*
X29600Y116296D01*
X30615D01*
X30884Y115796D01*
X30725Y115413D01*
Y114787D01*
X30965Y114208D01*
X31096Y114077D01*
Y99200D01*
X31096Y99200D01*
X31187Y98739D01*
X31449Y98348D01*
X32548Y97249D01*
X32939Y96987D01*
X33400Y96896D01*
X33400Y96896D01*
X70700D01*
X70700Y96896D01*
X71161Y96987D01*
X71552Y97249D01*
X75352Y101049D01*
X75613Y101439D01*
X75704Y101900D01*
Y112877D01*
X75835Y113008D01*
X76075Y113587D01*
Y114213D01*
X75835Y114792D01*
X75392Y115235D01*
X74813Y115475D01*
X74187D01*
X73608Y115235D01*
X73165Y114792D01*
X73132Y114712D01*
X72632Y114812D01*
Y118162D01*
X73515D01*
X74087Y117925D01*
X74713D01*
X75292Y118165D01*
X75735Y118608D01*
X75975Y119187D01*
Y119813D01*
X75735Y120392D01*
X75292Y120835D01*
X74713Y121075D01*
X74087D01*
X73508Y120835D01*
X73244Y120571D01*
X71889D01*
X71889Y120571D01*
X71428Y120479D01*
X71037Y120218D01*
X71037Y120218D01*
X70576Y119757D01*
X70315Y119366D01*
X70223Y118905D01*
X70223Y118905D01*
Y104026D01*
X67901Y101704D01*
X56099D01*
X54404Y103399D01*
Y117900D01*
X54313Y118361D01*
X54052Y118752D01*
X52451Y120352D01*
X52061Y120613D01*
X51600Y120704D01*
X51600Y120704D01*
X50114D01*
X49907Y121204D01*
X53266Y124563D01*
X56120D01*
Y124563D01*
X56317D01*
Y124563D01*
X61025D01*
Y124350D01*
X63100D01*
Y128500D01*
Y132650D01*
X61025D01*
Y132437D01*
X60104D01*
Y138577D01*
X60235Y138708D01*
X60475Y139287D01*
Y139913D01*
X60235Y140492D01*
X59792Y140935D01*
X59213Y141175D01*
X58587D01*
X58008Y140935D01*
X57565Y140492D01*
X57325Y139913D01*
Y139287D01*
X57565Y138708D01*
X57696Y138577D01*
Y132437D01*
X56317D01*
Y132437D01*
X56120D01*
Y132437D01*
X51698D01*
X51395Y132437D01*
Y132437D01*
X51198D01*
X50740Y132536D01*
X50669Y132891D01*
X50305Y133435D01*
Y137677D01*
X50323Y137695D01*
X52115D01*
X52186Y137647D01*
X52762Y137532D01*
X52828D01*
X53087Y137425D01*
X53713D01*
X54292Y137665D01*
X54735Y138108D01*
X54975Y138687D01*
Y139313D01*
X54735Y139892D01*
X54292Y140335D01*
X53713Y140575D01*
X53200D01*
X53176Y140591D01*
X52600Y140705D01*
X49700D01*
X49124Y140591D01*
X48636Y140264D01*
X47736Y139364D01*
X47409Y138876D01*
X47308Y138370D01*
X47218Y138240D01*
X46868Y137964D01*
X43718D01*
Y141870D01*
X46868D01*
X47175Y141931D01*
X47435Y142105D01*
X47609Y142366D01*
X47671Y142673D01*
Y149494D01*
X64766D01*
Y142673D01*
X64827Y142366D01*
X65001Y142105D01*
X65261Y141931D01*
X65569Y141870D01*
X68718D01*
Y137964D01*
X65569D01*
X65261Y137903D01*
X65001Y137729D01*
X64827Y137469D01*
X64766Y137161D01*
Y132650D01*
X64100D01*
Y129000D01*
X66175D01*
Y129272D01*
X69506D01*
X69813Y129333D01*
X70073Y129507D01*
X70247Y129768D01*
X70308Y130075D01*
Y133224D01*
X78561D01*
Y146610D01*
X70308D01*
Y149494D01*
X125494D01*
X125494Y24706D01*
D02*
G37*
G36*
X42128Y130075D02*
X42189Y129768D01*
X42363Y129507D01*
X42383Y129493D01*
X42486Y128889D01*
X38401Y124804D01*
X35561D01*
X35408Y125282D01*
X35407Y125304D01*
X36952Y126848D01*
X36952Y126848D01*
X37213Y127239D01*
X37304Y127700D01*
X37304Y127700D01*
Y132660D01*
X37304Y132660D01*
X37291Y132724D01*
X37699Y133224D01*
X42128D01*
Y130075D01*
D02*
G37*
G36*
X51996Y116896D02*
Y102900D01*
X51996Y102900D01*
X52087Y102439D01*
X52349Y102049D01*
X54593Y99804D01*
X54386Y99304D01*
X33899D01*
X33504Y99699D01*
Y114077D01*
X33635Y114208D01*
X33875Y114787D01*
Y115413D01*
X33716Y115796D01*
X33985Y116296D01*
X48977D01*
X49108Y116165D01*
X49687Y115925D01*
X50313D01*
X50892Y116165D01*
X51335Y116608D01*
X51496Y116996D01*
X51996Y116896D01*
D02*
G37*
G36*
X-34713Y54725D02*
X-34087D01*
X-33919Y54795D01*
X-24930D01*
X-24675Y54413D01*
Y53787D01*
X-25044Y53457D01*
X-28109D01*
Y52606D01*
X-29500D01*
X-30191Y52469D01*
X-30777Y52077D01*
X-34994Y47861D01*
X-35494Y48068D01*
Y54513D01*
X-34994Y54841D01*
X-34713Y54725D01*
D02*
G37*
G36*
X26091Y37393D02*
X28697D01*
X28736Y37197D01*
X29062Y36709D01*
X30595Y35176D01*
X30665Y35008D01*
X31108Y34565D01*
X31419Y34436D01*
X31504Y34362D01*
X31471Y33838D01*
X31388Y33757D01*
X26191D01*
Y32850D01*
X23729D01*
Y34101D01*
X12706D01*
Y32828D01*
X1275D01*
X895Y33117D01*
X895Y33328D01*
Y38695D01*
X9819D01*
X9987Y38625D01*
X10613D01*
X10781Y38695D01*
X12706D01*
Y37644D01*
X23729D01*
Y38720D01*
X26091D01*
Y37393D01*
D02*
G37*
%LPC*%
G36*
X-32900Y133028D02*
Y131800D01*
X-31672D01*
X-31885Y132313D01*
X-32388Y132815D01*
X-32900Y133028D01*
D02*
G37*
G36*
X-31672Y130800D02*
X-32900D01*
Y129572D01*
X-32388Y129785D01*
X-31885Y130288D01*
X-31672Y130800D01*
D02*
G37*
G36*
X-28387Y146775D02*
X-29013D01*
X-29592Y146535D01*
X-30035Y146092D01*
X-30275Y145513D01*
Y144887D01*
X-30205Y144719D01*
Y127481D01*
X-30275Y127313D01*
Y126687D01*
X-30035Y126108D01*
X-29592Y125665D01*
X-29013Y125425D01*
X-28387D01*
X-27808Y125665D01*
X-27365Y126108D01*
X-27125Y126687D01*
Y127313D01*
X-27195Y127481D01*
Y144719D01*
X-27125Y144887D01*
Y145513D01*
X-27365Y146092D01*
X-27808Y146535D01*
X-28387Y146775D01*
D02*
G37*
G36*
X-25310Y122803D02*
X-29641D01*
X-30412Y122701D01*
X-31130Y122404D01*
X-31747Y121930D01*
X-32220Y121314D01*
X-32518Y120595D01*
X-32619Y119824D01*
Y115494D01*
X-32518Y114723D01*
X-32220Y114005D01*
X-31747Y113388D01*
X-31130Y112915D01*
X-30412Y112617D01*
X-29641Y112515D01*
X-25310D01*
X-24539Y112617D01*
X-23821Y112915D01*
X-23204Y113388D01*
X-22731Y114005D01*
X-22433Y114723D01*
X-22332Y115494D01*
Y119824D01*
X-22433Y120595D01*
X-22731Y121314D01*
X-23204Y121930D01*
X-23821Y122404D01*
X-24539Y122701D01*
X-25310Y122803D01*
D02*
G37*
G36*
X23300Y84228D02*
Y83000D01*
X24528D01*
X24315Y83513D01*
X23812Y84015D01*
X23300Y84228D01*
D02*
G37*
G36*
X22300D02*
X21788Y84015D01*
X21285Y83513D01*
X21072Y83000D01*
X22300D01*
Y84228D01*
D02*
G37*
G36*
X24528Y82000D02*
X23300D01*
Y80772D01*
X23812Y80985D01*
X24315Y81488D01*
X24528Y82000D01*
D02*
G37*
G36*
X22300D02*
X21072D01*
X21285Y81488D01*
X21788Y80985D01*
X22300Y80772D01*
Y82000D01*
D02*
G37*
G36*
X17700Y54300D02*
X16472D01*
X16685Y53787D01*
X17188Y53285D01*
X17700Y53072D01*
Y54300D01*
D02*
G37*
G36*
X-16479Y53670D02*
X-18947D01*
Y51300D01*
X-16479D01*
Y53670D01*
D02*
G37*
G36*
X17717Y52424D02*
X12493D01*
Y49955D01*
X17717D01*
Y52424D01*
D02*
G37*
G36*
X500Y51128D02*
Y49900D01*
X1728D01*
X1515Y50412D01*
X1013Y50915D01*
X500Y51128D01*
D02*
G37*
G36*
X-500D02*
X-1013Y50915D01*
X-1515Y50412D01*
X-1728Y49900D01*
X-500D01*
Y51128D01*
D02*
G37*
G36*
X1931Y78965D02*
X1069D01*
X273Y78636D01*
X-336Y78027D01*
X-665Y77231D01*
Y76369D01*
X-336Y75573D01*
X-306Y75544D01*
Y57648D01*
X-5648Y52306D01*
X-12400D01*
X-13091Y52169D01*
X-13677Y51777D01*
X-14069Y51191D01*
X-14206Y50500D01*
X-14069Y49809D01*
X-13677Y49223D01*
X-13091Y48831D01*
X-12400Y48694D01*
X-4900D01*
X-4209Y48831D01*
X-3623Y49223D01*
X2777Y55623D01*
X3169Y56209D01*
X3306Y56900D01*
Y75544D01*
X3336Y75573D01*
X3665Y76369D01*
Y77231D01*
X3336Y78027D01*
X2727Y78636D01*
X1931Y78965D01*
D02*
G37*
G36*
X23942Y48955D02*
X18717D01*
Y46487D01*
X23942D01*
Y48955D01*
D02*
G37*
G36*
X17717D02*
X12493D01*
Y46487D01*
X17717D01*
Y48955D01*
D02*
G37*
G36*
X-12900Y46428D02*
Y45200D01*
X-11672D01*
X-11885Y45713D01*
X-12387Y46215D01*
X-12900Y46428D01*
D02*
G37*
G36*
X-11672Y44200D02*
X-12900D01*
Y42972D01*
X-12387Y43185D01*
X-11885Y43687D01*
X-11672Y44200D01*
D02*
G37*
G36*
X62200Y147828D02*
Y146600D01*
X63428D01*
X63215Y147113D01*
X62713Y147615D01*
X62200Y147828D01*
D02*
G37*
G36*
X61200D02*
X60688Y147615D01*
X60185Y147113D01*
X59972Y146600D01*
X61200D01*
Y147828D01*
D02*
G37*
G36*
X63428Y145600D02*
X62200D01*
Y144372D01*
X62713Y144585D01*
X63215Y145088D01*
X63428Y145600D01*
D02*
G37*
G36*
X61200D02*
X59972D01*
X60185Y145088D01*
X60688Y144585D01*
X61200Y144372D01*
Y145600D01*
D02*
G37*
G36*
X72400Y129728D02*
Y128500D01*
X73628D01*
X73415Y129013D01*
X72913Y129515D01*
X72400Y129728D01*
D02*
G37*
G36*
X71400D02*
X70888Y129515D01*
X70385Y129013D01*
X70172Y128500D01*
X71400D01*
Y129728D01*
D02*
G37*
G36*
X91010Y146609D02*
X89009D01*
X87047Y146218D01*
X85198Y145453D01*
X83534Y144341D01*
X82120Y142926D01*
X81008Y141263D01*
X80242Y139414D01*
X79852Y137452D01*
Y135451D01*
X80242Y133488D01*
X81008Y131640D01*
X82120Y129976D01*
X83534Y128561D01*
X85198Y127450D01*
X87047Y126684D01*
X89009Y126294D01*
X91010D01*
X92972Y126684D01*
X94821Y127450D01*
X96484Y128561D01*
X97899Y129976D01*
X99011Y131640D01*
X99777Y133488D01*
X100167Y135451D01*
Y137452D01*
X99777Y139414D01*
X99011Y141263D01*
X97899Y142926D01*
X96484Y144341D01*
X94821Y145453D01*
X92972Y146218D01*
X91010Y146609D01*
D02*
G37*
G36*
X73628Y127500D02*
X72400D01*
Y126272D01*
X72913Y126485D01*
X73415Y126988D01*
X73628Y127500D01*
D02*
G37*
G36*
X71400D02*
X70172D01*
X70385Y126988D01*
X70888Y126485D01*
X71400Y126272D01*
Y127500D01*
D02*
G37*
G36*
X66175Y128000D02*
X64100D01*
Y124350D01*
X66175D01*
Y128000D01*
D02*
G37*
G36*
X65241Y123017D02*
X63576D01*
Y118159D01*
X68434D01*
Y119824D01*
X68325Y120651D01*
X68006Y121421D01*
X67498Y122082D01*
X66837Y122589D01*
X66067Y122908D01*
X65241Y123017D01*
D02*
G37*
G36*
X62576D02*
X60910D01*
X60084Y122908D01*
X59314Y122589D01*
X58653Y122082D01*
X58145Y121421D01*
X57826Y120651D01*
X57718Y119824D01*
Y118159D01*
X62576D01*
Y123017D01*
D02*
G37*
G36*
X85669Y113356D02*
X84919D01*
Y109569D01*
X89890D01*
X89809Y110179D01*
X89381Y111213D01*
X88700Y112100D01*
X87812Y112782D01*
X86778Y113210D01*
X85669Y113356D01*
D02*
G37*
G36*
X83919D02*
X83169D01*
X82059Y113210D01*
X81025Y112782D01*
X80138Y112100D01*
X79456Y111213D01*
X79028Y110179D01*
X78948Y109569D01*
X83919D01*
Y113356D01*
D02*
G37*
G36*
X89890Y108569D02*
X84919D01*
Y104783D01*
X85669D01*
X86778Y104929D01*
X87812Y105357D01*
X88700Y106038D01*
X89381Y106926D01*
X89809Y107960D01*
X89890Y108569D01*
D02*
G37*
G36*
X83919D02*
X78948D01*
X79028Y107960D01*
X79456Y106926D01*
X80138Y106038D01*
X81025Y105357D01*
X82059Y104929D01*
X83169Y104783D01*
X83919D01*
Y108569D01*
D02*
G37*
G36*
X68434Y117159D02*
X57718D01*
Y115494D01*
X57826Y114667D01*
X58145Y113897D01*
X58653Y113236D01*
X59189Y112825D01*
X59194Y112815D01*
X59235Y112383D01*
X59201Y112234D01*
X58804Y111930D01*
X58331Y111313D01*
X58034Y110595D01*
X57932Y109824D01*
Y105494D01*
X58034Y104723D01*
X58331Y104005D01*
X58804Y103388D01*
X59421Y102915D01*
X60139Y102617D01*
X60910Y102515D01*
X65241D01*
X66012Y102617D01*
X66730Y102915D01*
X67347Y103388D01*
X67820Y104005D01*
X68118Y104723D01*
X68219Y105494D01*
Y109824D01*
X68118Y110595D01*
X67820Y111313D01*
X67347Y111930D01*
X66951Y112234D01*
X66916Y112383D01*
X66957Y112815D01*
X66962Y112825D01*
X67498Y113236D01*
X68006Y113897D01*
X68325Y114667D01*
X68434Y115494D01*
Y117159D01*
D02*
G37*
G36*
X96850Y107689D02*
X94350D01*
X93296Y107550D01*
X92314Y107143D01*
X91470Y106496D01*
X90823Y105653D01*
X90417Y104671D01*
X90278Y103617D01*
X90417Y102563D01*
X90823Y101581D01*
X91470Y100737D01*
X92314Y100090D01*
X93296Y99683D01*
X94350Y99544D01*
X96850D01*
X97904Y99683D01*
X98886Y100090D01*
X99730Y100737D01*
X100377Y101581D01*
X100784Y102563D01*
X100922Y103617D01*
X100784Y104671D01*
X100377Y105653D01*
X99730Y106496D01*
X98886Y107143D01*
X97904Y107550D01*
X96850Y107689D01*
D02*
G37*
G36*
X85669Y102236D02*
X83169D01*
X82115Y102097D01*
X81133Y101690D01*
X80289Y101043D01*
X79642Y100200D01*
X79235Y99218D01*
X79097Y98164D01*
X79235Y97110D01*
X79642Y96128D01*
X80289Y95284D01*
X81133Y94637D01*
X82115Y94230D01*
X83169Y94092D01*
X85669D01*
X86723Y94230D01*
X87705Y94637D01*
X88548Y95284D01*
X89196Y96128D01*
X89602Y97110D01*
X89741Y98164D01*
X89602Y99218D01*
X89196Y100200D01*
X88548Y101043D01*
X87705Y101690D01*
X86723Y102097D01*
X85669Y102236D01*
D02*
G37*
G36*
X29013Y95475D02*
X28387D01*
X27808Y95235D01*
X27365Y94792D01*
X27125Y94213D01*
Y93587D01*
X27365Y93008D01*
X27808Y92565D01*
X28387Y92325D01*
X29013D01*
X29181Y92395D01*
X52378D01*
X52508Y92265D01*
X53087Y92025D01*
X53713D01*
X54292Y92265D01*
X54735Y92708D01*
X54975Y93287D01*
Y93913D01*
X54735Y94492D01*
X54292Y94935D01*
X53932Y95084D01*
X53623Y95291D01*
X53047Y95405D01*
X29181D01*
X29013Y95475D01*
D02*
G37*
G36*
X61300Y91328D02*
Y90100D01*
X62528D01*
X62315Y90613D01*
X61813Y91115D01*
X61300Y91328D01*
D02*
G37*
G36*
X60300D02*
X59787Y91115D01*
X59285Y90613D01*
X59072Y90100D01*
X60300D01*
Y91328D01*
D02*
G37*
G36*
X96850Y96783D02*
X94350D01*
X93296Y96645D01*
X92314Y96238D01*
X91470Y95591D01*
X90823Y94747D01*
X90417Y93765D01*
X90278Y92711D01*
X90417Y91657D01*
X90823Y90675D01*
X91470Y89832D01*
X92314Y89184D01*
X93296Y88778D01*
X94350Y88639D01*
X96850D01*
X97904Y88778D01*
X98886Y89184D01*
X99730Y89832D01*
X100377Y90675D01*
X100784Y91657D01*
X100922Y92711D01*
X100784Y93765D01*
X100377Y94747D01*
X99730Y95591D01*
X98886Y96238D01*
X97904Y96645D01*
X96850Y96783D01*
D02*
G37*
G36*
X62528Y89100D02*
X61300D01*
Y87872D01*
X61813Y88085D01*
X62315Y88587D01*
X62528Y89100D01*
D02*
G37*
G36*
X60300D02*
X59072D01*
X59285Y88587D01*
X59787Y88085D01*
X60300Y87872D01*
Y89100D01*
D02*
G37*
G36*
X85669Y91330D02*
X83169D01*
X82115Y91192D01*
X81133Y90785D01*
X80289Y90138D01*
X79642Y89294D01*
X79235Y88312D01*
X79097Y87258D01*
X79235Y86204D01*
X79642Y85222D01*
X80289Y84379D01*
X81133Y83732D01*
X82115Y83325D01*
X83169Y83186D01*
X85669D01*
X86723Y83325D01*
X87705Y83732D01*
X88548Y84379D01*
X89196Y85222D01*
X89602Y86204D01*
X89741Y87258D01*
X89602Y88312D01*
X89196Y89294D01*
X88548Y90138D01*
X87705Y90785D01*
X86723Y91192D01*
X85669Y91330D01*
D02*
G37*
G36*
X96850Y85878D02*
X94350D01*
X93296Y85739D01*
X92314Y85332D01*
X91470Y84685D01*
X90823Y83842D01*
X90417Y82859D01*
X90278Y81805D01*
X90417Y80752D01*
X90823Y79769D01*
X91470Y78926D01*
X92314Y78279D01*
X93296Y77872D01*
X94350Y77733D01*
X96850D01*
X97904Y77872D01*
X98886Y78279D01*
X99730Y78926D01*
X100377Y79769D01*
X100784Y80752D01*
X100922Y81805D01*
X100784Y82859D01*
X100377Y83842D01*
X99730Y84685D01*
X98886Y85332D01*
X97904Y85739D01*
X96850Y85878D01*
D02*
G37*
G36*
X40600Y77528D02*
Y76300D01*
X41828D01*
X41615Y76812D01*
X41113Y77315D01*
X40600Y77528D01*
D02*
G37*
G36*
X39600D02*
X39088Y77315D01*
X38585Y76812D01*
X38372Y76300D01*
X39600D01*
Y77528D01*
D02*
G37*
G36*
X41828Y75300D02*
X40600D01*
Y74072D01*
X41113Y74285D01*
X41615Y74787D01*
X41828Y75300D01*
D02*
G37*
G36*
X39600D02*
X38372D01*
X38585Y74787D01*
X39088Y74285D01*
X39600Y74072D01*
Y75300D01*
D02*
G37*
G36*
X85669Y80425D02*
X83169D01*
X82115Y80286D01*
X81133Y79879D01*
X80289Y79232D01*
X79642Y78389D01*
X79235Y77407D01*
X79097Y76353D01*
X79235Y75299D01*
X79642Y74317D01*
X80289Y73473D01*
X81133Y72826D01*
X82115Y72419D01*
X83169Y72281D01*
X85669D01*
X86723Y72419D01*
X87705Y72826D01*
X88548Y73473D01*
X89196Y74317D01*
X89602Y75299D01*
X89741Y76353D01*
X89602Y77407D01*
X89196Y78389D01*
X88548Y79232D01*
X87705Y79879D01*
X86723Y80286D01*
X85669Y80425D01*
D02*
G37*
G36*
X96850Y74972D02*
X94350D01*
X93296Y74834D01*
X92314Y74427D01*
X91470Y73779D01*
X90823Y72936D01*
X90417Y71954D01*
X90278Y70900D01*
X90417Y69846D01*
X90823Y68864D01*
X91470Y68020D01*
X92314Y67373D01*
X93296Y66966D01*
X94350Y66828D01*
X96850D01*
X97904Y66966D01*
X98886Y67373D01*
X99730Y68020D01*
X100377Y68864D01*
X100784Y69846D01*
X100922Y70900D01*
X100784Y71954D01*
X100377Y72936D01*
X99730Y73779D01*
X98886Y74427D01*
X97904Y74834D01*
X96850Y74972D01*
D02*
G37*
G36*
X89706Y69485D02*
X79131D01*
Y61410D01*
X89706D01*
Y69485D01*
D02*
G37*
G36*
X33031Y79265D02*
X32169D01*
X31373Y78936D01*
X30764Y78327D01*
X30435Y77531D01*
Y76669D01*
X30764Y75873D01*
X31373Y75264D01*
X32169Y74935D01*
X32211D01*
X44423Y62723D01*
X45009Y62331D01*
X45700Y62194D01*
X57932D01*
Y60376D01*
X58034Y59605D01*
X58331Y58886D01*
X58804Y58270D01*
X59421Y57796D01*
X60139Y57499D01*
X60910Y57397D01*
X65241D01*
X66012Y57499D01*
X66730Y57796D01*
X67347Y58270D01*
X67820Y58886D01*
X68118Y59605D01*
X68219Y60376D01*
Y64706D01*
X68118Y65477D01*
X67820Y66195D01*
X67347Y66812D01*
X66756Y67266D01*
X66717Y67535D01*
Y67547D01*
X66756Y67816D01*
X67347Y68270D01*
X67820Y68887D01*
X68118Y69605D01*
X68219Y70376D01*
Y74706D01*
X68118Y75477D01*
X67820Y76195D01*
X67347Y76812D01*
X66730Y77285D01*
X66012Y77583D01*
X65241Y77684D01*
X60910D01*
X60139Y77583D01*
X59421Y77285D01*
X58804Y76812D01*
X58331Y76195D01*
X58034Y75477D01*
X57932Y74706D01*
Y70376D01*
X58034Y69605D01*
X58331Y68887D01*
X58804Y68270D01*
X59395Y67816D01*
X59434Y67547D01*
Y67535D01*
X59395Y67266D01*
X58804Y66812D01*
X58331Y66195D01*
X58170Y65806D01*
X46448D01*
X34765Y77489D01*
Y77531D01*
X34436Y78327D01*
X33827Y78936D01*
X33031Y79265D01*
D02*
G37*
G36*
X74813Y56475D02*
X74187D01*
X73608Y56235D01*
X73165Y55792D01*
X72925Y55213D01*
Y54587D01*
X72501Y54305D01*
X71258D01*
Y55309D01*
X65943D01*
X65943Y50028D01*
X65730Y49616D01*
X65730Y49385D01*
Y47147D01*
X68600D01*
X71470D01*
X71470Y49616D01*
X71258Y50028D01*
X71258Y51295D01*
X73693D01*
X74269Y51409D01*
X74757Y51736D01*
X75564Y52543D01*
X75891Y53031D01*
X76005Y53607D01*
Y54419D01*
X76075Y54587D01*
Y55213D01*
X75835Y55792D01*
X75392Y56235D01*
X74813Y56475D01*
D02*
G37*
G36*
X57657Y58009D02*
X52342D01*
Y52603D01*
X52342Y52497D01*
Y52103D01*
X52342Y51997D01*
Y46591D01*
X57657D01*
Y48495D01*
X60719D01*
X60887Y48425D01*
X61513D01*
X62092Y48665D01*
X62535Y49108D01*
X62775Y49687D01*
Y50313D01*
X62535Y50892D01*
X62092Y51335D01*
X61513Y51575D01*
X60887D01*
X60719Y51505D01*
X57678D01*
X57657Y52005D01*
X57657Y52103D01*
Y52497D01*
X57657Y52603D01*
Y53721D01*
X60455D01*
X60687Y53625D01*
X61313D01*
X61892Y53865D01*
X62335Y54308D01*
X62575Y54887D01*
Y55513D01*
X62335Y56092D01*
X61892Y56535D01*
X61313Y56775D01*
X60687D01*
X60583Y56732D01*
X57657D01*
Y58009D01*
D02*
G37*
G36*
X71470Y46147D02*
X69100D01*
Y43679D01*
X71470D01*
Y46147D01*
D02*
G37*
G36*
X68100D02*
X65730D01*
Y43679D01*
X68100D01*
Y46147D01*
D02*
G37*
G36*
X40900Y43428D02*
Y42200D01*
X42128D01*
X41915Y42713D01*
X41412Y43215D01*
X40900Y43428D01*
D02*
G37*
G36*
X39900D02*
X39388Y43215D01*
X38885Y42713D01*
X38672Y42200D01*
X39900D01*
Y43428D01*
D02*
G37*
G36*
X63847Y43170D02*
X61379D01*
Y40800D01*
X63847D01*
Y43170D01*
D02*
G37*
G36*
X37721Y42920D02*
X35253D01*
Y40550D01*
X37721D01*
Y42920D01*
D02*
G37*
G36*
X42128Y41200D02*
X40900D01*
Y39972D01*
X41412Y40185D01*
X41915Y40688D01*
X42128Y41200D01*
D02*
G37*
G36*
X39900D02*
X38672D01*
X38885Y40688D01*
X39388Y40185D01*
X39900Y39972D01*
Y41200D01*
D02*
G37*
G36*
X67316Y43170D02*
X67085Y43170D01*
X64847D01*
Y40300D01*
Y37430D01*
X67316Y37430D01*
X67728Y37642D01*
X67816Y37642D01*
X73009D01*
Y38332D01*
X73628D01*
X73887Y38225D01*
X74513D01*
X75092Y38465D01*
X75535Y38908D01*
X75775Y39487D01*
Y40113D01*
X75535Y40692D01*
X75092Y41135D01*
X74513Y41375D01*
X73887D01*
X73810Y41343D01*
X73009D01*
Y42957D01*
X67728Y42957D01*
X67316Y43170D01*
D02*
G37*
G36*
X63847Y39800D02*
X61379D01*
Y37430D01*
X63847D01*
Y39800D01*
D02*
G37*
G36*
X37721Y39550D02*
X35253D01*
Y37180D01*
X37721D01*
Y39550D01*
D02*
G37*
G36*
X37821Y33970D02*
X35353D01*
Y31600D01*
X37821D01*
Y33970D01*
D02*
G37*
G36*
Y30600D02*
X35353D01*
Y28230D01*
X37821D01*
Y30600D01*
D02*
G37*
G36*
X91010Y48223D02*
X89009D01*
X87047Y47833D01*
X85198Y47067D01*
X83534Y45955D01*
X82120Y44540D01*
X81008Y42877D01*
X80242Y41028D01*
X79852Y39066D01*
Y37065D01*
X80242Y35103D01*
X81008Y33254D01*
X82120Y31590D01*
X83534Y30176D01*
X85198Y29064D01*
X87047Y28298D01*
X89009Y27908D01*
X91010D01*
X92972Y28298D01*
X94821Y29064D01*
X96484Y30176D01*
X97899Y31590D01*
X99011Y33254D01*
X99777Y35103D01*
X100167Y37065D01*
Y39066D01*
X99777Y41028D01*
X99011Y42877D01*
X97899Y44540D01*
X96484Y45955D01*
X94821Y47067D01*
X92972Y47833D01*
X91010Y48223D01*
D02*
G37*
G36*
X21200Y27628D02*
Y26400D01*
X22428D01*
X22215Y26913D01*
X21712Y27415D01*
X21200Y27628D01*
D02*
G37*
G36*
X20200D02*
X19688Y27415D01*
X19185Y26913D01*
X18972Y26400D01*
X20200D01*
Y27628D01*
D02*
G37*
G36*
X4200Y37928D02*
Y36700D01*
X5428D01*
X5215Y37212D01*
X4713Y37715D01*
X4200Y37928D01*
D02*
G37*
G36*
X3200D02*
X2688Y37715D01*
X2185Y37212D01*
X1972Y36700D01*
X3200D01*
Y37928D01*
D02*
G37*
G36*
X5428Y35700D02*
X4200D01*
Y34472D01*
X4713Y34685D01*
X5215Y35188D01*
X5428Y35700D01*
D02*
G37*
G36*
X3200D02*
X1972D01*
X2185Y35188D01*
X2688Y34685D01*
X3200Y34472D01*
Y35700D01*
D02*
G37*
%LPD*%
D13*
X-10143Y135153D02*
Y139357D01*
X-3600Y145900D01*
X53200Y102900D02*
Y117900D01*
X55600Y100500D02*
X68400D01*
X53200Y102900D02*
X55600Y100500D01*
X71428Y103528D02*
Y118905D01*
X68400Y100500D02*
X71428Y103528D01*
X70700Y98100D02*
X74500Y101900D01*
Y113900D01*
X-23300Y136728D02*
Y140600D01*
X-18100Y145800D01*
X-17000Y135381D02*
Y141800D01*
X-13000Y145800D01*
X-7700D01*
X58900Y131391D02*
Y139600D01*
X58661Y131151D02*
X58900Y131391D01*
X26600Y120500D02*
X29600Y117500D01*
X26600Y120500D02*
Y132200D01*
X28400Y121500D02*
X30400Y119500D01*
X28400Y121500D02*
Y135600D01*
X25800Y138200D02*
X28400Y135600D01*
X27400Y139800D02*
X29900Y137300D01*
Y125900D02*
X32200Y123600D01*
X29900Y125900D02*
Y137300D01*
X34551Y126151D02*
X36100Y127700D01*
Y132660D01*
X33651Y126151D02*
X34551D01*
X33500Y126000D02*
X33651Y126151D01*
X31300Y133400D02*
X33700Y131000D01*
X31300Y133400D02*
Y140300D01*
X29800Y141800D02*
X31300Y140300D01*
X33400Y98100D02*
X70700D01*
X32300Y99200D02*
Y115100D01*
Y99200D02*
X33400Y98100D01*
X71889Y119366D02*
X74266D01*
X71428Y118905D02*
X71889Y119366D01*
X74266D02*
X74400Y119500D01*
X51600D02*
X53200Y117900D01*
X53739Y126739D02*
Y131151D01*
X31200Y121800D02*
X48800D01*
X53739Y126739D01*
X32200Y123600D02*
X38900D01*
X44900Y129600D01*
X19300Y145900D02*
X24100D01*
X15700Y142300D02*
X19300Y145900D01*
X30400Y119500D02*
X51600D01*
X8300Y145800D02*
X13400D01*
X3900Y141400D02*
X8300Y145800D01*
X-3600Y145900D02*
X2900D01*
X22900Y94900D02*
Y124500D01*
Y94900D02*
X27000Y90800D01*
Y57400D02*
Y90800D01*
X33087Y135673D02*
Y141813D01*
Y135673D02*
X36100Y132660D01*
X32200Y142700D02*
Y144100D01*
Y142700D02*
X33087Y141813D01*
X29600Y117500D02*
X50000D01*
X23561Y138200D02*
X25800D01*
X23100Y137739D02*
X23561Y138200D01*
X23100Y135253D02*
Y137739D01*
X23000Y135153D02*
X23100Y135253D01*
X19900Y139800D02*
X27400D01*
X17779Y136560D02*
Y137679D01*
X16371Y135153D02*
X17779Y136560D01*
Y137679D02*
X19900Y139800D01*
X18700Y141800D02*
X29800D01*
X9900Y139339D02*
X10361Y139800D01*
X16700D01*
X9900Y135310D02*
Y139339D01*
X16700Y139800D02*
X18700Y141800D01*
X9743Y135153D02*
X9900Y135310D01*
X3961Y138500D02*
X3961D01*
X7761Y142300D02*
X15700D01*
X3961Y138500D02*
X7761Y142300D01*
X3500Y138039D02*
X3961Y138500D01*
X3500Y136728D02*
Y138039D01*
X3828Y136400D02*
X4500D01*
X3500Y136728D02*
X3828Y136400D01*
X3253Y135153D02*
X4500Y136400D01*
X3114Y135153D02*
X3253D01*
X-2400Y140939D02*
X-1939Y141400D01*
X3900D01*
X-2400Y136500D02*
Y140939D01*
X-3514Y135386D02*
X-2400Y136500D01*
X-3514Y135153D02*
Y135386D01*
X-17000Y135381D02*
X-16771Y135153D01*
X-23900Y136300D02*
X-23728D01*
X-23300Y136728D01*
D15*
X-18482Y43861D02*
X-17643Y44700D01*
X-13400D01*
D19*
X64347Y40300D02*
D03*
X70253D02*
D03*
X-19447Y50800D02*
D03*
X-25353D02*
D03*
X34853Y31100D02*
D03*
X28947D02*
D03*
X34753Y40050D02*
D03*
X28847D02*
D03*
X34853Y49000D02*
D03*
X28947D02*
D03*
D42*
X-30300Y25500D02*
X10700D01*
X-34000Y29200D02*
X-30300Y25500D01*
X-34000Y29200D02*
Y46300D01*
X-29500Y50800D02*
X-25353D01*
X-34000Y46300D02*
X-29500Y50800D01*
X-16771Y129247D02*
X-13547D01*
X-23400D02*
X-16771D01*
X-4900Y50500D02*
X1500Y56900D01*
Y76800D01*
X-12400Y50500D02*
X-4900D01*
X32600Y77100D02*
X45700Y64000D01*
X63000D01*
X-13547Y129247D02*
X-10143D01*
X-13500Y122500D02*
Y129200D01*
X-13547Y129247D02*
X-13500Y129200D01*
X68747Y52553D02*
X69100Y52200D01*
X68600Y52553D02*
X68747D01*
X48818Y132018D02*
X49000Y132200D01*
X48818Y131151D02*
Y132018D01*
X-23900Y135653D02*
X-23400Y135153D01*
X-23900Y135653D02*
Y136300D01*
X16371Y129247D02*
X23000D01*
X9743D02*
X16371D01*
X3114D02*
X9743D01*
X-3514D02*
X3114D01*
X-10143D02*
X-3514D01*
D43*
X-11100Y107600D02*
X7100Y89400D01*
X-29200Y107600D02*
X-11100D01*
X-28700Y127000D02*
Y145200D01*
X7100Y70400D02*
Y89400D01*
Y70400D02*
X23200Y54300D01*
X-34400Y56300D02*
X-7500D01*
X-3600Y60200D01*
X-24073Y52127D02*
X-23138Y53062D01*
X-25400Y50800D02*
X-25254D01*
X-24073Y51981D01*
Y52127D01*
X-23138Y53062D02*
Y54009D01*
X-23102Y54045D01*
X-25900Y44636D02*
Y45000D01*
X-30800Y42900D02*
X-27636D01*
X-25900Y44636D01*
X-17048Y32448D02*
X-15938Y31338D01*
X-17048Y32448D02*
Y35548D01*
X-18300Y36800D02*
X-17048Y35548D01*
X-15938Y31338D02*
X-13338D01*
X63276Y63641D02*
Y63724D01*
X63000Y64000D02*
X63276Y63724D01*
X73693Y52800D02*
X74500Y53607D01*
Y54847D01*
X69781Y52800D02*
X73693D01*
X69100Y52200D02*
X69181D01*
X69781Y52800D01*
X53047Y93900D02*
X53347Y93600D01*
X28700Y93900D02*
X53047D01*
X53347Y93600D02*
X53400D01*
X55000Y49347D02*
X55653Y50000D01*
X61147D01*
X55100Y55200D02*
X55126Y55226D01*
X60974D01*
X61000Y55200D01*
X55047Y55253D02*
X55100Y55200D01*
X55000Y55253D02*
X55047D01*
X28847Y40050D02*
X28946D01*
X30127Y37773D02*
X31962Y35938D01*
X30127Y37773D02*
Y38869D01*
X28946Y40050D02*
X30127Y38869D01*
X-13338Y31338D02*
X-13300Y31300D01*
X-13278Y31322D01*
X18195D01*
X18217Y31345D01*
X28702D01*
X34363Y49490D02*
X34500Y49626D01*
X23200Y54300D02*
X32600D01*
X34500Y52400D01*
Y49626D02*
Y52400D01*
X34363Y49490D02*
X34853Y49000D01*
Y49000D02*
Y49000D01*
X70700Y39400D02*
X71138Y39838D01*
X74162D01*
X74200Y39800D01*
X70253Y39847D02*
X70700Y39400D01*
X70253Y39847D02*
Y40300D01*
X53362Y139038D02*
X53400Y139000D01*
X52762Y139038D02*
X53362D01*
X52600Y139200D02*
X52762Y139038D01*
X48800Y138300D02*
X49700Y139200D01*
X52600D01*
X48800Y132400D02*
Y138300D01*
Y132400D02*
X49000Y132200D01*
X-25823Y45400D02*
X-25210Y46013D01*
X28897Y40100D02*
Y47819D01*
X28847Y40050D02*
X28897Y40100D01*
X29178Y48100D02*
X29200D01*
X28897Y47819D02*
X29178Y48100D01*
X28947Y48353D02*
X29200Y48100D01*
X28947Y48353D02*
Y49000D01*
X-4617Y40400D02*
Y40617D01*
X-7200Y43200D02*
X-4617Y40617D01*
Y40400D02*
X-4417Y40200D01*
X10247D01*
X-25900Y37916D02*
X-25823Y37839D01*
X-25900Y37916D02*
Y45000D01*
X28702Y31345D02*
X28947Y31100D01*
X20425Y40225D02*
X28672D01*
X28847Y40050D01*
X19900Y39700D02*
X20425Y40225D01*
X19200Y40400D02*
X19900Y39700D01*
X18217Y40400D02*
X19200D01*
X18017Y40200D02*
X18217Y40400D01*
X10300Y40200D02*
X18017D01*
D44*
X95600Y81805D02*
D03*
Y103617D02*
D03*
X84419Y98164D02*
D03*
X95600Y92711D02*
D03*
X84419Y87258D02*
D03*
Y76353D02*
D03*
X95600Y70900D02*
D03*
X84419Y109069D02*
D03*
D45*
X90009Y38065D02*
D03*
Y136451D02*
D03*
D46*
X84419Y65447D02*
D03*
D47*
X10700Y25500D02*
D03*
X74500Y113900D02*
D03*
X58900Y139600D02*
D03*
X26600Y132200D02*
D03*
X33500Y126000D02*
D03*
X33700Y131000D02*
D03*
X-29200Y107600D02*
D03*
X-28700Y127000D02*
D03*
X-34400Y56300D02*
D03*
X-23100Y54100D02*
D03*
X-30800Y42900D02*
D03*
X-12400Y50500D02*
D03*
X-3600Y60200D02*
D03*
X-13500Y122500D02*
D03*
X74500Y54900D02*
D03*
X28700Y93900D02*
D03*
X53400Y93600D02*
D03*
X74400Y119500D02*
D03*
X18200Y54800D02*
D03*
X40100Y75800D02*
D03*
X61200Y50000D02*
D03*
X61000Y55200D02*
D03*
X24100Y145900D02*
D03*
X-18100Y145800D02*
D03*
X-13300Y31300D02*
D03*
X71900Y128000D02*
D03*
X60800Y89600D02*
D03*
X0Y49400D02*
D03*
X40400Y41700D02*
D03*
X20700Y25900D02*
D03*
X-13400Y44700D02*
D03*
X61700Y146100D02*
D03*
X-33400Y131300D02*
D03*
X3700Y36200D02*
D03*
X22800Y82500D02*
D03*
X13400Y145800D02*
D03*
X-7700D02*
D03*
X2900Y145900D02*
D03*
X27000Y57400D02*
D03*
X74200Y39800D02*
D03*
X53400Y139000D02*
D03*
X32200Y144100D02*
D03*
X31200Y121800D02*
D03*
X22900Y124500D02*
D03*
X44900Y129600D02*
D03*
X50000Y117500D02*
D03*
X32300Y115100D02*
D03*
X-28700Y145200D02*
D03*
X32000Y35900D02*
D03*
X10300Y40200D02*
D03*
D48*
X1500Y76800D02*
D03*
X32600Y77100D02*
D03*
D49*
X48836Y128500D02*
D03*
X53758D02*
D03*
X58679D02*
D03*
X63600D02*
D03*
D50*
X73639Y139917D02*
D03*
X38797D02*
D03*
D51*
X-27476Y62541D02*
D03*
X63076Y117659D02*
D03*
Y62541D02*
D03*
Y72541D02*
D03*
Y107659D02*
D03*
X-27476Y117659D02*
D03*
D52*
X55000Y49347D02*
D03*
Y55253D02*
D03*
X68600Y52553D02*
D03*
Y46647D02*
D03*
X-23400Y135153D02*
D03*
Y129247D02*
D03*
X-16771Y135153D02*
D03*
Y129247D02*
D03*
X-10143Y135153D02*
D03*
Y129247D02*
D03*
X-3514Y135153D02*
D03*
Y129247D02*
D03*
X3114Y135153D02*
D03*
Y129247D02*
D03*
X9743Y135153D02*
D03*
Y129247D02*
D03*
X16371Y135153D02*
D03*
Y129247D02*
D03*
X23000Y135153D02*
D03*
Y129247D02*
D03*
D53*
X-18442Y36339D02*
D03*
X-25923D02*
D03*
X-25963Y43861D02*
D03*
X-18482D02*
D03*
D54*
X18217Y49455D02*
D03*
Y40400D02*
D03*
Y31345D02*
D03*
D55*
X-4617Y40400D02*
D03*
M02*
