G04*
G04 #@! TF.GenerationSoftware,Altium Limited,Altium Designer,21.9.2 (33)*
G04*
G04 Layer_Color=8388736*
%FSLAX25Y25*%
%MOIN*%
G70*
G04*
G04 #@! TF.SameCoordinates,353233E6-1857-4CDD-983F-46C35F824410*
G04*
G04*
G04 #@! TF.FilePolarity,Positive*
G04*
G01*
G75*
%ADD64C,0.00197*%
D64*
X40134Y149221D02*
X44071D01*
X42102Y147252D02*
Y151189D01*
X46827Y145047D02*
Y151976D01*
X37378D02*
X46827D01*
X37378Y145047D02*
Y151976D01*
Y145047D02*
X46827D01*
X29636Y149221D02*
X33573D01*
X31605Y147252D02*
Y151189D01*
X36329Y145047D02*
Y151976D01*
X26880D02*
X36329D01*
X26880Y145047D02*
Y151976D01*
Y145047D02*
X36329D01*
X19139Y149221D02*
X23076D01*
X21107Y147252D02*
Y151189D01*
X25831Y145047D02*
Y151976D01*
X16383D02*
X25831D01*
X16383Y145047D02*
Y151976D01*
Y145047D02*
X25831D01*
X8641Y149221D02*
X12578D01*
X10609Y147252D02*
Y151189D01*
X15334Y145047D02*
Y151976D01*
X5885D02*
X15334D01*
X5885Y145047D02*
Y151976D01*
Y145047D02*
X15334D01*
X-1857Y149221D02*
X2080D01*
X112Y147252D02*
Y151189D01*
X4836Y145047D02*
Y151976D01*
X-4613D02*
X4836D01*
X-4613Y145047D02*
Y151976D01*
Y145047D02*
X4836D01*
X-12354Y149221D02*
X-8417D01*
X-10386Y147252D02*
Y151189D01*
X-5661Y145047D02*
Y151976D01*
X-15110D02*
X-5661D01*
X-15110Y145047D02*
Y151976D01*
Y145047D02*
X-5661D01*
X-22852Y149221D02*
X-18915D01*
X-20884Y147252D02*
Y151189D01*
X-16159Y145047D02*
Y151976D01*
X-25608D02*
X-16159D01*
X-25608Y145047D02*
Y151976D01*
Y145047D02*
X-16159D01*
X-33350Y149221D02*
X-29413D01*
X-31381Y147252D02*
Y151189D01*
X-26657Y145047D02*
Y151976D01*
X-36105D02*
X-26657D01*
X-36105Y145047D02*
Y151976D01*
Y145047D02*
X-26657D01*
X50631Y149221D02*
X54568D01*
X52600Y147252D02*
Y151189D01*
X57324Y145047D02*
Y151976D01*
X47875D02*
X57324D01*
X47875Y145047D02*
Y151976D01*
Y145047D02*
X57324D01*
M02*
