G04*
G04 #@! TF.GenerationSoftware,Altium Limited,Altium Designer,21.9.2 (33)*
G04*
G04 Layer_Color=128*
%FSLAX25Y25*%
%MOIN*%
G70*
G04*
G04 #@! TF.SameCoordinates,353233E6-1857-4CDD-983F-46C35F824410*
G04*
G04*
G04 #@! TF.FilePolarity,Positive*
G04*
G01*
G75*
%ADD19R,0.03937X0.03740*%
%ADD49R,0.03150X0.06299*%
%ADD50R,0.08268X0.11811*%
G04:AMPARAMS|DCode=51|XSize=86.61mil|YSize=86.61mil|CornerRadius=21.65mil|HoleSize=0mil|Usage=FLASHONLY|Rotation=0.000|XOffset=0mil|YOffset=0mil|HoleType=Round|Shape=RoundedRectangle|*
%AMROUNDEDRECTD51*
21,1,0.08661,0.04331,0,0,0.0*
21,1,0.04331,0.08661,0,0,0.0*
1,1,0.04331,0.02165,-0.02165*
1,1,0.04331,-0.02165,-0.02165*
1,1,0.04331,-0.02165,0.02165*
1,1,0.04331,0.02165,0.02165*
%
%ADD51ROUNDEDRECTD51*%
%ADD52R,0.03740X0.03937*%
%ADD53R,0.04724X0.05512*%
%ADD54R,0.09449X0.03937*%
%ADD55R,0.09449X0.12992*%
D19*
X64347Y40300D02*
D03*
X70253D02*
D03*
X-19447Y50800D02*
D03*
X-25353D02*
D03*
X34853Y31100D02*
D03*
X28947D02*
D03*
X34753Y40050D02*
D03*
X28847D02*
D03*
X34853Y49000D02*
D03*
X28947D02*
D03*
D49*
X48836Y128500D02*
D03*
X53758D02*
D03*
X58679D02*
D03*
X63600D02*
D03*
D50*
X73639Y139917D02*
D03*
X38797D02*
D03*
D51*
X-27476Y62541D02*
D03*
X63076Y117659D02*
D03*
Y62541D02*
D03*
Y72541D02*
D03*
Y107659D02*
D03*
X-27476Y117659D02*
D03*
D52*
X55000Y49347D02*
D03*
Y55253D02*
D03*
X68600Y52553D02*
D03*
Y46647D02*
D03*
X-23400Y135153D02*
D03*
Y129247D02*
D03*
X-16771Y135153D02*
D03*
Y129247D02*
D03*
X-10143Y135153D02*
D03*
Y129247D02*
D03*
X-3514Y135153D02*
D03*
Y129247D02*
D03*
X3114Y135153D02*
D03*
Y129247D02*
D03*
X9743Y135153D02*
D03*
Y129247D02*
D03*
X16371Y135153D02*
D03*
Y129247D02*
D03*
X23000Y135153D02*
D03*
Y129247D02*
D03*
D53*
X-18442Y36339D02*
D03*
X-25923D02*
D03*
X-25963Y43861D02*
D03*
X-18482D02*
D03*
D54*
X18217Y49455D02*
D03*
Y40400D02*
D03*
Y31345D02*
D03*
D55*
X-4617Y40400D02*
D03*
M02*
