G04*
G04 #@! TF.GenerationSoftware,Altium Limited,Altium Designer,21.9.2 (33)*
G04*
G04 Layer_Color=32768*
%FSLAX25Y25*%
%MOIN*%
G70*
G04*
G04 #@! TF.SameCoordinates,353233E6-1857-4CDD-983F-46C35F824410*
G04*
G04*
G04 #@! TF.FilePolarity,Positive*
G04*
G01*
G75*
%ADD64C,0.00197*%
D64*
X40462Y150204D02*
Y148237D01*
X41446D01*
X41774Y148565D01*
Y149876D01*
X41446Y150204D01*
X40462D01*
X43742D02*
X42430D01*
Y149221D01*
X43086Y149548D01*
X43414D01*
X43742Y149221D01*
Y148565D01*
X43414Y148237D01*
X42758D01*
X42430Y148565D01*
X29965Y150204D02*
Y148237D01*
X30949D01*
X31277Y148565D01*
Y149876D01*
X30949Y150204D01*
X29965D01*
X31933D02*
X33245D01*
Y149876D01*
X31933Y148565D01*
Y148237D01*
X19467Y150204D02*
Y148237D01*
X20451D01*
X20779Y148565D01*
Y149876D01*
X20451Y150204D01*
X19467D01*
X21435Y149876D02*
X21763Y150204D01*
X22419D01*
X22747Y149876D01*
Y149548D01*
X22419Y149221D01*
X22747Y148892D01*
Y148565D01*
X22419Y148237D01*
X21763D01*
X21435Y148565D01*
Y148892D01*
X21763Y149221D01*
X21435Y149548D01*
Y149876D01*
X21763Y149221D02*
X22419D01*
X8969Y150204D02*
Y148237D01*
X9954D01*
X10281Y148565D01*
Y149876D01*
X9954Y150204D01*
X8969D01*
X11921Y148237D02*
Y150204D01*
X10937Y149221D01*
X12249D01*
X-1528Y150204D02*
Y148237D01*
X-544D01*
X-216Y148565D01*
Y149876D01*
X-544Y150204D01*
X-1528D01*
X440Y149876D02*
X768Y150204D01*
X1424D01*
X1752Y149876D01*
Y149548D01*
X1424Y149221D01*
X1096D01*
X1424D01*
X1752Y148892D01*
Y148565D01*
X1424Y148237D01*
X768D01*
X440Y148565D01*
X-12026Y150204D02*
Y148237D01*
X-11042D01*
X-10714Y148565D01*
Y149876D01*
X-11042Y150204D01*
X-12026D01*
X-8746Y148237D02*
X-10058D01*
X-8746Y149548D01*
Y149876D01*
X-9074Y150204D01*
X-9730D01*
X-10058Y149876D01*
X-22195Y150204D02*
Y148237D01*
X-21211D01*
X-20884Y148565D01*
Y149876D01*
X-21211Y150204D01*
X-22195D01*
X-20227Y148237D02*
X-19572D01*
X-19899D01*
Y150204D01*
X-20227Y149876D01*
X-33021Y150204D02*
Y148237D01*
X-32037D01*
X-31709Y148565D01*
Y149876D01*
X-32037Y150204D01*
X-33021D01*
X-31053Y148565D02*
X-30725Y148237D01*
X-30069D01*
X-29741Y148565D01*
Y149876D01*
X-30069Y150204D01*
X-30725D01*
X-31053Y149876D01*
Y149548D01*
X-30725Y149221D01*
X-29741D01*
X50960Y150204D02*
Y148237D01*
X51944D01*
X52272Y148565D01*
Y149876D01*
X51944Y150204D01*
X50960D01*
X54240D02*
X53584Y149876D01*
X52928Y149221D01*
Y148565D01*
X53256Y148237D01*
X53912D01*
X54240Y148565D01*
Y148892D01*
X53912Y149221D01*
X52928D01*
M02*
